<?xml version="1.0" encoding="UTF-8"?>
<!DOCTYPE svg PUBLIC "-//W3C//DTD SVG 1.1//EN" "http://www.w3.org/Graphics/SVG/1.1/DTD/svg11.dtd">
<!-- Creator: CorelDRAW -->
<svg xmlns="http://www.w3.org/2000/svg" xml:space="preserve" width="6.82666in" height="6.82666in" style="shape-rendering:geometricPrecision; text-rendering:geometricPrecision; image-rendering:optimizeQuality; fill-rule:evenodd; clip-rule:evenodd"
viewBox="0 0 6.82666 6.82666"
 xmlns:xlink="http://www.w3.org/1999/xlink">
 <defs>
  <style type="text/css">
   <![CDATA[
    .fil0 {fill:#607D8B}
    .fil2 {fill:#FFFFFE}
    .fil1 {fill:#FFFFFE;fill-rule:nonzero}
   ]]>
  </style>
 </defs>
 <g id="Layer_x0020_1">
  <metadata id="CorelCorpID_0Corel-Layer"/>
  <rect class="fil0" width="6.82666" height="6.82666" rx="0.853335" ry="0.853335"/>
  <g id="_215575592">
   <g>
    <path id="_215576912" class="fil1" d="M4.2325 2.76679c0.224386,0.0977126 0.417165,0.270185 0.555071,0.490583 0.0915669,0.146343 0.158988,0.313953 0.195346,0.49478 -0.152413,-0.0164213 -0.302449,-0.0674488 -0.451697,-0.118228 -0.259449,-0.0882756 -0.516846,-0.175732 -0.794461,-0.113354l0.00244488 -0.00574409c0.0385669,-0.0902402 0.087252,-0.17711 0.139406,-0.260138 0.0586535,-0.0933661 0.122858,-0.183315 0.189087,-0.271433 0.0527165,-0.0701299 0.107276,-0.138803 0.160083,-0.208807 0.00184646,-0.00244882 0.00341732,-0.00501181 0.00472047,-0.00765748zm-0.968445 0.795728c-0.0109016,-0.0286535 -0.022252,-0.0569449 -0.0341142,-0.0847047 -0.0387992,-0.0907795 -0.0877795,-0.17835 -0.140004,-0.262031 -0.0596496,-0.0955866 -0.124878,-0.187791 -0.192161,-0.278126 -0.050122,-0.0672913 -0.101783,-0.133315 -0.152508,-0.200094 0.028126,0.00151969 0.0545433,0.0155236 0.0715118,0.0384449 0.0158701,0.0187598 0.0321929,0.0364803 0.0489488,0.0530866 0.0186417,0.0184803 0.0379055,0.0359331 0.0577913,0.0522756 0.073626,0.0605236 0.15922,0.109358 0.25028,0.142079 0.0869567,0.0312402 0.178717,0.0477323 0.269472,0.0455512 0.135236,-0.00324016 0.25724,-0.0312126 0.363445,-0.0804606 0.107189,-0.0496929 0.198358,-0.121437 0.270744,-0.211543l-0.000188976 -0.000149606c0.0144291,-0.0179606 0.0340315,-0.0293189 0.0549606,-0.0336378 -0.0493465,0.0648583 -0.0995039,0.129047 -0.148209,0.194449 -0.0672795,0.0903346 -0.13252,0.182539 -0.192161,0.278126 -0.0522283,0.0836811 -0.101205,0.171252 -0.14,0.262031 -0.0108819,0.0254606 -0.0213307,0.0513701 -0.0314055,0.0775984 -0.0612874,0.0230354 -0.123661,0.0540118 -0.187354,0.0944843 -0.0573622,-0.0364488 -0.113654,-0.065185 -0.169047,-0.087378zm-1.36476 0.187787c0.0369134,-0.182252 0.105413,-0.351098 0.198413,-0.498268 0.13763,-0.217807 0.329051,-0.388299 0.551587,-0.485252 0.00130315,0.00264961 0.00288189,0.0052126 0.00472441,0.00766142 0.052811,0.0700039 0.107362,0.138677 0.160079,0.208807 0.0662323,0.0881181 0.130437,0.178067 0.189087,0.271433 0.0521575,0.0830276 0.100843,0.169898 0.139406,0.260138l0.00416535 0.00982283c-0.284244,-0.0700906 -0.546937,0.0191654 -0.811768,0.109276 -0.14402,0.049 -0.288776,0.0982362 -0.435693,0.116382z"/>
    <path id="_215576480" class="fil1" d="M3.75733 1.60127l0.00412598 0.00101575 0.000527559 0.000137795 0.00309843 0.000787402 0.000535433 0.000141732 0.00165354 0.000437008 0.00259449 0.000688976 0.00150394 0.000405512 0.00316142 0.000862205 0.000413386 0.00011811 0.00325591 0.00092126 0.000940945 0.000259843 0.00042126 0.000129921 0.00361024 0.00104724 0.000248031 7.48031e-005 0.0042126 0.00126378 0.000255906 7.87402e-005 0.0034252 0.00105906 0.000637795 0.00019685 0.0020315 0.000637795 0.00106693 0.00034252 0.00179134 0.000570866 0.00262598 0.000862205 0.000996063 0.000322835 0.00069685 0.000228346 0.00354724 0.00119291 3.93701e-005 7.87402e-006 0.0035748 0.00122441 0.000625984 0.000216535 0.00293701 0.0010315 0.00128346 0.000452756 0.000818898 0.000295276 0.00247244 0.000889764 0.00200787 0.000732283 0.00130315 0.000480315 0.00259843 0.00096063 0.000188976 7.08661e-005 0.00323228 0.00122047 0.000307087 0.00011811 0.00353543 0.0013622 0.000346457 0.000129921 9.84252e-005 4.33071e-005 0.00384646 0.00151575 0.000228346 8.26772e-005 0.00252362 0.00101969 0.0016378 0.00065748 0.000799213 0.000322835 0.00216535 0.000889764 0.00209055 0.000870079 0.000318898 0.000129921 0.00291732 0.00122441 5.90551e-005 2.75591e-005 0.00364961 0.00156299 0.000346457 0.000141732 6.29921e-005 2.75591e-005 0.00340551 0.00148425 0.000712598 0.000311024 0.00275197 0.00121654 0.00134252 0.000602362 0.000767717 0.000346457 0.00256299 0.00116142 0.000748031 0.000334646 0.00147244 0.000681102 0.00101575 0.000472441 0.00219291 0.00101181 0.000220472 9.84252e-005 0.00321654 0.00151969 0.00019685 9.44882e-005 0.00340945 0.00162598 0.00259843 0.00126378 0.0010748 0.000523622 0.00214961 0.00106299 0.0015315 0.000751969 0.0022874 0.00114173 0.0005 0.000251969 0.00228346 0.00115354 0.000330709 0.000169291 0.00271654 0.00138976 0.000913386 0.000472441 0.000452756 0.00023622 0.00333071 0.00173622 0.000161417 8.66142e-005 0.00315748 0.00166535 0.000767717 0.000409449 0.000661417 0.000362205 0.00314567 0.00169685 0.000232283 0.00011811 0.00305118 0.00166535 0.000700787 0.000393701 0.00130315 0.000720472 0.00256299 0.00143307 0.000692913 0.000389764 0.00314567 0.00177953 9.84252e-005 5.11811e-005 0.00322441 0.00185827 0.0005 0.000287402 0.000929134 0.000547244 0.00260236 0.00152362 0.00026378 0.000145669 0.00211024 0.00124803 0.00166535 0.000996063 0.00151181 0.000905512 0.00224409 0.00135433 0.000913386 0.000559055 0.00281102 0.00171654 0.000334646 0.000208661 0.00312205 0.00194488 0.000248031 0.000153543 0.00286614 0.00180315 0.000212598 0.000137795 0.00183465 0.00116535 0.00103937 0.000673228 0.00137402 0.000885827 0.000614173 0.000393701 0.00219291 0.00142913 0.000818898 0.000535433 0.00112598 0.00073622 0.00247638 0.0016378 0.000555118 0.000377953 0.00301969 0.00202362c0.0722717,0.0488346 0.124657,0.105362 0.13537,0.152374l-7.87402e-005 1.1811e-005 0.000389764 0.00232283 -0.000106299 1.9685e-005 7.87402e-006 3.14961e-005 3.93701e-006 3.14961e-005 7.87402e-006 3.54331e-005 7.87402e-006 3.54331e-005 3.93701e-006 3.54331e-005 7.87402e-006 2.75591e-005 7.87402e-006 3.54331e-005 7.87402e-006 3.54331e-005c0.000106299,0.000535433 0.000232283,0.00106299 0.000346457,0.00159843l7.87402e-006 2.3622e-005 7.87402e-006 3.93701e-005 7.87402e-006 3.14961e-005 7.87402e-006 3.54331e-005 1.1811e-005 3.14961e-005 3.93701e-006 2.75591e-005 0 3.93701e-006 3.93701e-006 3.54331e-005 7.87402e-006 3.14961e-005c0.00519685,0.0314528 0.00877559,0.0623583 0.0104409,0.0925945l7.87402e-005 0.00144094 7.48031e-005 0.00144094 7.48031e-005 0.00143307 6.69291e-005 0.00144094 6.69291e-005 0.00143701 6.29921e-005 0.00144488 5.51181e-005 0.00143307 6.29921e-005 0.00144488 5.51181e-005 0.00143701 4.33071e-005 0.00144094 5.11811e-005 0.00144488 5.11811e-005 0.00143701 3.54331e-005 0.00144094 3.93701e-006 3.93701e-006 3.54331e-005 0.00143701 3.93701e-006 0 3.54331e-005 0.00144094 3.14961e-005 0.00144488 2.75591e-005 0.00144882 3.93701e-006 0 2.3622e-005 0.00144094 2.3622e-005 0.00144488 1.9685e-005 0.00144094 3.93701e-006 0 1.5748e-005 0.00144488 0 0 1.1811e-005 0.00144488 3.93701e-006 0 7.87402e-006 0.00144488 3.93701e-006 0 3.93701e-006 0.00144488 3.93701e-006 0.00144882 0 0.00288976 -3.93701e-006 0.00144094 -3.93701e-006 0 0 0.00144882 -3.93701e-006 0 -7.87402e-006 0.00144882 -3.93701e-006 0 -1.1811e-005 0.00144488 0 0 -3.93701e-005 0.00289764 0 0 -4.72441e-005 0.00290157 -3.93701e-006 0c-0.000641732,0.0314646 -0.00357087,0.0614803 -0.00812992,0.092622 -0.0265787,0.181539 -0.096752,0.314539 -0.192894,0.407303 -0.122055,0.117776 -0.287953,0.17311 -0.460677,0.182l0 -9.84252e-005c-0.144189,0 -0.318173,-0.0595276 -0.452016,-0.188673 -0.00161417,-0.00155512 -0.00322047,-0.00312598 -0.0048189,-0.00470079l-0.000188976 -0.000177165 -0.00460236 -0.00458268 -7.48031e-005 -8.26772e-005 -0.00215354 -0.00218504 -0.0029252 -0.00298031 -0.00122441 -0.00127165 -0.00347244 -0.00360236 -0.00192126 -0.00203937 -0.00280709 -0.00297638 -0.00248819 -0.00270079 -0.00215748 -0.00233465 -0.00226378 -0.0025 -0.00251575 -0.00279528 -0.00210236 -0.00237008 -0.00251575 -0.00285039 -0.00225591 -0.00259843 -0.00227953 -0.00264173 -0.00226772 -0.00266929 -0.00234646 -0.0027874 -0.00210236 -0.00251969 -0.00237795 -0.00288976 -0.00231496 -0.00283071 -0.00206299 -0.00256693 -0.00218504 -0.00274409 -0.00240945 -0.00305906 -0.00217323 -0.00277953 -0.00177559 -0.00230315 -0.00265748 -0.00348425 -0.00183071 -0.00242913 -0.00241732 -0.00323622 -0.00187008 -0.00255118 -0.00215748 -0.00295276 -0.00248425 -0.00345669 -0.00166929 -0.00234646 -0.00219685 -0.00312598 -0.00211811 -0.0030315 -0.00190945 -0.00279134 -0.00222835 -0.00326772 -0.0019252 -0.00288189 -0.0019685 -0.00296063 -0.00225984 -0.00344882 -0.00177559 -0.00273228 -0.0019685 -0.00309449 -0.00208268 -0.00327559 -0.00138189 -0.00222835 -0.00249213 -0.00402362 -0.000149606 -0.00023622c-0.00114173,-0.00187402 -0.0022874,-0.00375984 -0.00341732,-0.00565354l-8.66142e-005 -0.000141732 -0.00274409 -0.00464173 -0.00101969 -0.00173228 -0.000185039 -0.000314961c-0.0012126,-0.00207874 -0.00241732,-0.00416142 -0.00360236,-0.00625984l-4.72441e-005 -8.66142e-005c-0.00120866,-0.00212205 -0.00240551,-0.00425591 -0.00359055,-0.00640157l-9.44882e-005 -0.00015748c-0.00115354,-0.00209843 -0.00230315,-0.00420079 -0.00344488,-0.00631496l-0.000220472 -0.000417323 -0.00111417 -0.00209843 -0.00234252 -0.00440945 -0.00135433 -0.00261024 -0.00207874 -0.00401575 -0.00191732 -0.00380315 -0.00144094 -0.00287795 -0.00179921 -0.00364567 -0.00163386 -0.00335039 -0.0016811 -0.00352362 -0.00161417 -0.00339764 -0.00157874 -0.00340945 -0.00165748 -0.00358661 -0.00159055 -0.00352756 -0.00161024 -0.00361417 -0.00148819 -0.00338583 -0.00155906 -0.00359449 -0.00179134 -0.00422047 -0.00112992 -0.00268504 -0.00181496 -0.00440157 -0.00127165 -0.0031378 -0.00151575 -0.0037874 -0.00146063 -0.00370866 -0.00144882 -0.00374803 -0.00137008 -0.0036063 -0.00138583 -0.00368898 -0.0014685 -0.00398425 -0.00124016 -0.0034252 -0.00146457 -0.00412992 -0.00132283 -0.00377953 -0.00115748 -0.00337402 -0.00140157 -0.00416929 -0.0013937 -0.0042126 -0.00105906 -0.00323228 -0.00137402 -0.00432677 -0.00119685 -0.0038189 -0.0010315 -0.00337402 -0.00135827 -0.00448819 -0.00116535 -0.00397638 -0.00109449 -0.00377165 -0.00141732 -0.00505118 -0.000755906 -0.00270866 -0.00146063 -0.0053937 -0.000779528 -0.0029252 -0.0010315 -0.00400787 -0.0011063 -0.00431102 -5.90551e-005 -0.000240157c-0.000633858,-0.00250394 -0.00124803,-0.00501575 -0.00185039,-0.00753937l-0.000122047 -0.000519685c-0.000633858,-0.00262992 -0.00125197,-0.00526772 -0.00185827,-0.00790945l-4.33071e-005 -0.000216535c-0.00061811,-0.00272047 -0.00122835,-0.00545669 -0.00182677,-0.00819685l-2.3622e-005 -9.44882e-005c-0.000586614,-0.00270866 -0.00116142,-0.00542913 -0.00172441,-0.00816142l-8.26772e-005 -0.000417323c-0.000543307,-0.00262598 -0.00107087,-0.00525984 -0.00158661,-0.00790945l-7.48031e-005 -0.000362205 -0.000574803 -0.00301575 -0.00107874 -0.00575591 -0.000531496 -0.00295669 -0.00096063 -0.00538583 -0.000744094 -0.00444094 -0.000720472 -0.00427165 -0.000661417 -0.00423228 -0.000728346 -0.00467323 -0.000602362 -0.00408268 -0.000677165 -0.00470472 -0.00057874 -0.00420866 -0.00061811 -0.00461811 -0.000602362 -0.00475984 -0.00034252 -0.00275197c0.123382,-0.127728 0.216988,-0.172028 0.302106,-0.212311 0.0917205,-0.0434094 0.174988,-0.0828307 0.269811,-0.192224 -0.00337008,0.0459724 -0.0114213,0.0835276 -0.0185039,0.102256 -0.00726378,0.014937 -0.00937795,0.0324567 -0.00473228,0.0497559 0.0102402,0.0381299 0.0494567,0.0607323 0.0875827,0.0504921l-2.75591e-005 -8.66142e-005c0.186752,-0.0502362 0.252736,-0.161933 0.317047,-0.323567 0.0360079,-0.0905 0.0705394,-0.185894 0.0980945,-0.27935 0.00370079,-0.0125472 0.0168031,-0.0197559 0.029374,-0.0160669 0.0125236,0.0036811 0.0197323,0.0167874 0.0160354,0.0293228 -0.027937,0.0947441 -0.063189,0.191598 -0.0996929,0.283358 -0.00753543,0.0189252 -0.015252,0.0378346 -0.0232598,0.0566102zm0.771232 1.23356c0.00190551,-0.085063 -0.00489764,-0.420122 -0.00984646,-0.663898 -0.00271654,-0.134028 -0.00487008,-0.24013 -0.00473622,-0.258039 0.00314567,-0.406783 -0.124331,-0.669059 -0.325795,-0.832736 -0.196709,-0.159819 -0.459327,-0.219701 -0.736858,-0.22626 -0.00403543,-0.000440945 -0.00814567,-0.000629921 -0.0123071,-0.000547244l7.87402e-006 0.000354331c-0.280693,0.00552362 -0.546693,0.0649843 -0.745425,0.226449 -0.201453,0.163685 -0.328941,0.425953 -0.325799,0.83274 0.000275591,0.0355748 0.00921654,0.334193 0.0175669,0.583748 0.00418898,0.125161 0.00826772,0.238906 0.0111142,0.30322 0.0597638,-0.0417165 0.123106,-0.0783937 0.189677,-0.109205l-0.00136614 -0.00372441 0.0893346 -0.0329961c0.0784567,-0.0289764 0.16587,-0.00212598 0.217366,0.0629016 0.0125394,0.0158425 0.0269961,0.0303622 0.0413307,0.0445669 0.0163583,0.0162165 0.0334291,0.0317087 0.0512205,0.0463386 0.0658189,0.0541102 0.141776,0.097189 0.221976,0.126004 0.0750079,0.0269488 0.155126,0.0418858 0.234965,0.0399764 0.112118,-0.00268898 0.223543,-0.024315 0.32563,-0.0716496 0.0871929,-0.0404291 0.163161,-0.0979488 0.225079,-0.170898l0.0112677 -0.0140236c0.0538307,-0.0670157 0.145437,-0.0884843 0.224224,-0.0556181 0.108114,0.0451142 0.209213,0.103484 0.301374,0.173295z"/>
   </g>
   <path id="_215575928" class="fil2" d="M1.47769 3.80155c-3.93701e-005,0.000503937 -4.33071e-005,0.00103543 -4.33071e-005,0.00144488l0 0.455106 0.0595118 -0.015126c0.106945,-0.027185 0.216823,0.0381772 0.243988,0.145122 0.0145,0.0570787 0.00264173,0.114988 -0.0278268,0.160709 0.0124843,0.0185315 0.0220354,0.0394449 0.0278268,0.0622441 0.0145,0.0570787 0.00264173,0.114988 -0.0278268,0.160709 0.0124843,0.0185276 0.0220354,0.0394409 0.0278268,0.0622402 0.0145,0.0570787 0.00264173,0.114988 -0.0278268,0.160709 0.0124843,0.0185276 0.0220354,0.0394409 0.0278268,0.0622441 0.0271614,0.106933 -0.0381811,0.216783 -0.14511,0.243965l-0.15839 0.0402598 0 0.567803 0.00804331 0.00303543c0.319819,0.120823 0.601547,0.0410591 0.912311,-0.0505748 0.358642,-0.105748 0.685244,-0.202634 1.03095,0.0145039 0.00130709,0.000822835 0.00273622,0.00175591 0.00414567,0.00256693 0.00140945,-0.000811024 0.00283858,-0.00174409 0.00414567,-0.00256693 0.345709,-0.217138 0.672311,-0.120252 1.03095,-0.0145039 0.310764,0.0916339 0.592492,0.171398 0.912311,0.0505748l0.00803937 -0.00303543 0 -0.557748 -0.197925 -0.050315c-0.106925,-0.0271811 -0.172272,-0.137031 -0.14511,-0.243965 0.00579134,-0.0228031 0.0153425,-0.0437165 0.0278268,-0.0622441 -0.0304685,-0.0457205 -0.0423268,-0.10363 -0.0278268,-0.160709 0.00579134,-0.0227992 0.0153425,-0.0437126 0.0278268,-0.0622402 -0.0304685,-0.0457205 -0.0423268,-0.10363 -0.0278268,-0.160709 0.00579134,-0.0227992 0.0153425,-0.0437126 0.0278268,-0.0622441 -0.0304685,-0.0457205 -0.0423268,-0.10363 -0.0278268,-0.160709 0.0271693,-0.106945 0.137043,-0.172307 0.243988,-0.145122l0.0990472 0.0251772 0 -0.465157c0,-0.000409449 -3.93701e-006,-0.000940945 -3.93701e-005,-0.00144488 -0.308098,0.119236 -0.593717,0.0280866 -0.88963,-0.0725906 -0.360768,-0.122748 -0.661201,-0.217201 -1.01194,0.00566535l-0.0538386 0.0342087 -0.0538386 -0.0342087c-0.35074,-0.222866 -0.651173,-0.128413 -1.01194,-0.00566535 -0.295913,0.100677 -0.581531,0.191827 -0.88963,0.0725906z"/>
   <path id="_215575736" class="fil1" d="M1.31156 4.4039c-0.0537087,0.0136457 -0.086189,0.068252 -0.0725433,0.121961 0.0136417,0.0537087 0.068248,0.086189 0.121957,0.0725433l0.250331 -0.0636339c0.0537087,-0.0136417 0.086189,-0.068252 0.0725472,-0.121957 -0.0136457,-0.0537087 -0.068252,-0.086189 -0.121961,-0.0725472l-0.250331 0.0636339zm4.15413 0.863358c0.0537087,0.0136417 0.108315,-0.0188386 0.121957,-0.0725472 0.0136457,-0.0537087 -0.0188346,-0.108315 -0.0725433,-0.121957l-0.250331 -0.0636378c-0.0537087,-0.0136417 -0.108315,0.0188386 -0.121961,0.0725472 -0.0136417,0.0537087 0.0188386,0.108315 0.0725472,0.121957l0.250331 0.0636378zm0 -0.222953c0.0537087,0.0136457 0.108315,-0.0188346 0.121957,-0.0725433 0.0136457,-0.0537087 -0.0188346,-0.108315 -0.0725433,-0.121961l-0.250331 -0.0636339c-0.0537087,-0.0136417 -0.108315,0.0188386 -0.121961,0.0725472 -0.0136417,0.0537087 0.0188386,0.108315 0.0725472,0.121957l0.250331 0.0636339zm0 -0.222949c0.0537087,0.0136457 0.108315,-0.0188346 0.121957,-0.0725433 0.0136457,-0.0537087 -0.0188346,-0.108315 -0.0725433,-0.121961l-0.250331 -0.0636339c-0.0537087,-0.0136417 -0.108315,0.0188386 -0.121961,0.0725472 -0.0136417,0.0537087 0.0188386,0.108315 0.0725472,0.121957l0.250331 0.0636339zm0 -0.222953c0.0537087,0.0136457 0.108315,-0.0188346 0.121957,-0.0725433 0.0136457,-0.0537087 -0.0188346,-0.108315 -0.0725433,-0.121961l-0.250331 -0.0636339c-0.0537087,-0.0136417 -0.108315,0.0188386 -0.121961,0.0725472 -0.0136417,0.0537047 0.0188386,0.108315 0.0725472,0.121957l0.250331 0.0636339zm-4.15413 0.47435c-0.0537087,0.0136417 -0.086189,0.068248 -0.0725433,0.121957 0.0136417,0.0537087 0.068248,0.086189 0.121957,0.0725472l0.250331 -0.0636378c0.0537087,-0.0136417 0.086189,-0.068248 0.0725472,-0.121957 -0.0136457,-0.0537087 -0.068252,-0.086189 -0.121961,-0.0725472l-0.250331 0.0636378zm0 -0.222953c-0.0537087,0.0136457 -0.086189,0.068252 -0.0725433,0.121961 0.0136417,0.0537087 0.068248,0.086189 0.121957,0.0725433l0.250331 -0.0636339c0.0537087,-0.0136417 0.086189,-0.068248 0.0725472,-0.121957 -0.0136457,-0.0537087 -0.068252,-0.086189 -0.121961,-0.0725472l-0.250331 0.0636339zm0 -0.222949c-0.0537087,0.0136457 -0.086189,0.068252 -0.0725433,0.121961 0.0136417,0.0537087 0.068248,0.086189 0.121957,0.0725433l0.250331 -0.0636339c0.0537087,-0.0136417 0.086189,-0.068248 0.0725472,-0.121957 -0.0136457,-0.0537087 -0.068252,-0.086189 -0.121961,-0.0725472l-0.250331 0.0636339z"/>
  </g>
 </g>
</svg>
