<svg xmlns="http://www.w3.org/2000/svg" xmlns:xlink="http://www.w3.org/1999/xlink" version="1.1" id="Layer_1" x="0px" y="0px" viewBox="0 0 1440 700" style="enable-background:new 0 0 1440 700;" xml:space="preserve">
<style type="text/css">
	.st0{fill:#4E4E4E;}
</style>
<g id="XMLID_00000057842837856043520210000007399033596799831937_" transform="translate(0.399 0.054)">
	<path id="XMLID_00000109733431705703481260000014895847095781014190_" class="st0" d="M1084.1,182.7c-0.1-0.8-0.2-1.7-0.3-2.6   c-0.9-12.2,8.3-22.7,20.4-23.6c12.2-0.9,22.7,8.3,23.6,20.4c0.9,12.1-8.3,22.7-20.4,23.6l0,0c-0.7,0.1-1.5,0.1-2.3,0   c-0.5,0.1-0.9,0.3-1.2,0.6c-1.2,1.9,3.2,1.6,0.1,10.2c0,0.7-0.1,1.3-0.3,1.9c-0.2,3.3-1.5,13-1.7,18.2c0.7,0.8,0.8,1.1,0.8,2.9   c-0.3,2.5-0.9,8.5-1.8,12.3c-0.8,3.3-2.1,4-3.2,4.7c-1.6,6.9-1.9,12.5-5.9,20.8c-0.3,6.3-0.8,8-2.1,11.1   c-0.1,9.3,0.5,10.6-5.8,25.3c-1.6,6.9-0.1,11.6,1.6,18.7c1.7,7.3,6.5,10.4,7.3,17.9c1.7,17.7,1.2,29.7-2.5,43.6l3.3,7.8   c4.1,1.9,14.3,7,8.7,15.2c8,4.2,20,8.6,29.9,17.2c4.3,3.4,8.3,7.2,12,11.2c7.2,1.1,6.4,1.7,11.7,5c15.7,9.6,40.9,28.7,55.4,42.2   c2.5,1.5,3.5,2.5,5.5,3.6c0.3,0.6,0.5,0.8,0.3,0.9c-0.4,1.1-0.8,2.2-1.4,3.3c0.8,0.9,2.3,1.7,3.2,2.5c0.8,0.2,0.8-0.1,2.3-0.5   c1.8,1.7,4.1,3,5,3c2.5-0.7,2-0.1,4.2-2.5c0.8-0.8,2,0,2,0c1.3-1.6,2.9-3,4.7-4.1c1.8-1,5.2-1.1,5.2-1.1c1.1,0,0.9,1.2,0.8,1.6   c-1.4,0.7-4.1,1.4-5.6,2.6c-2.3,2.5-4.3,5.3-6,8.2c6.8-0.9,10.9,0.8,16.6,0.1c3-0.2,5.3,0,8.6-2.4c1.8-1.3,3.8-2.4,5.9-3.4   c2.7-1.1,5.3-0.6,7.7,1.1c1.7,1.9,2.7,1.9,0.1,4.6c-0.9,1-2.3,2.3-4,3.8c-3.6,3.6-7.3,7-11.2,10.2c-3.7,3-7.8,5.6-12.1,7.7   c-7.6,5.4-5.8,4.1-11.7,9.4c-1.2,0.9-2.4,1.7-3.7,2.5c-2.4,1.6-3,0.2-4.6-2.6c-0.7-1.1-1.3-2.1-1.8-3.3c-1.2-2.5-2.3-5.3-1.8-5.2   c-1.4-0.2-7.8-7.6-7.8-9.3c-1.4-0.3-7.1-5.9-7.2-6.9l-5.1-4.1c-5.8,1.2-7.1-2.4-22.5-13.2c-1.7,0-4.4-1-8.4-3.8   c-6.9-5.5-23.5-18.1-26.3-19.5c-3-1.6-6.7-2.9-8.8-4.9c-2.3-0.3-4.6-0.8-6.8-1.5c-2.5-0.7-5-1.3-7.6-1.6c-7-0.9-14.2-3.7-21.1-7.2   c-3.3-1.6-6.1-2.4-8.9-3.5c-6.3-2.7-11.7-5.1-15.9-6c-1.6-0.1-9.1-2.5-13.2-4.7c-1.4-0.7-2.1-1.4-3-1.6c-2.1-0.5-3.4,0.3-4.4,0.7   c-5.1,2.7-9.9,5-14.3,7.3c-4.1,2.1-7.9,4.5-11.9,6.8c-3.6,2.1-7.8,4.1-12.1,6.1c0,0-12.3,6.1-19,8.6c-7.9,6.2-16.2,11.9-24.9,17   c-3.6,1.7-10.5,6.1-13.8,7.1c-1.8,1.5-8.4,6.1-13.4,9.9c-4,2.9-6.9,5.4-6.9,5.4c-2.3,2-2.1,3-6.5,1.1c-1.2,1-2.1,1.6-2.9,2.1   c-3.2,2.3-3.4,1.7-4.6,1.7c-2.1,1.9-2.5,0.9-4.4,3.2c-1.2,1.9,0,1.5-2.6,2.5c-0.6,0.2-0.8,0.9-1.2,1.2c-2.1,1.8-2.1,6.8-7.2,7.1   c-2.9,2.1-2.3,4.6-4.5,4.5c0.1,2.1-4.1,5.4-4.7,5.4c-6.5,2.3-7-2.6-14.8,1c-1,0.5-2.5,1.7-4.5,2.1c-3.5,0.7-7.6,0-10.2-2   c-4-3-7.7-9-7.7-9c-1.2-3-0.6-4.9,3.4-7.8c1.7-1,1.9-1.8,4.7-2c1.4-0.6,1,0.2,3.5-0.6c1.5-0.6,1.5-0.1,4.3-0.3   c0.9-0.4,1.9-0.8,2.8-1l4.5-1.6c0,0,0.6-0.6,2.8-0.3c1.8-0.8,3.7-1.9,4.7-2.3c-0.2-2.9,0.1-2.8,1.5-4c1.7-1.5,2-1.2,3.3-0.3   c0.6-0.3,0.8-0.5,0.7-0.9c-0.2-1.6-1.5-2.3-1.1-5.6c-0.6-1.4-1.5-3-1.2-4.1c0.2-1.1,0.6-1.6,1.2-1.9s0.9,0.1,1.4,0.6   c0.6,0.9,1,2,1.2,3c0.2,2.6,1,6,3.6,4.1c1.5-1.6,1.8-5.6,4.9-4.7l2.3,1.9c1.9-1.8,1.9-1.8,3-2.5c0,0-1.8-1.8-0.2-3.2   c1.7-1.2,3.2-2.6,4.6-4.1c4.9-5.6,10.2-10.7,16-15.3c11.6-9.4,24.5-17,38.3-22.6c3.2-4,6.2-6.7,13.2-7.3   c8.4-14,24.3-26.6,27.9-28.6c2.9-5.4,4.3-4.9,8.1-5.9c3-2.5,3.8-2.5,5.2-5.1c1.4-5.3-3-19.5,8.2-20.3c1.3-2,2.9-4,4.5-5.8   c-1.5-3.7-2.5-7.5-3-11.4c-0.1-0.3-4.5-3.5-3.3-7.6c-1.9-2.3-5.4-7.4-6.4-9.8c-0.5,0-0.9-0.2-1.5-0.2c-0.7-0.1-1.4-0.1-2-0.1   c-1.8,4.5-3.7,4.9-6.8,5.9c-5.6,12-7.6,16.9-23.4,26.9c-3.8,4.2-6.7,9.3-8.2,14.8c-1.1,2.4-0.7,5.5-0.1,7.3   c-0.8,2.6-0.6,2.8-0.6,2.8c0.4,1.2,1.2,2.1,2.4,2.6c1.9,0.5,3.8,0.5,3.7,2.6c-0.2,2.6-3.7,2.3-5.4,1.9c-6.3-1-4.3-5.1-8.4-3.7   c-3,2-4.3,8-9.4,7.2c-0.7-0.5-0.5-1.8,0-2.7c0.7-1.5,1.9-2.7,1.2-3.3c-3.3,1-9.9,3.3-9.9,3.3c-3,0.9-6.5-0.7-3.5-2.7   c2.1-0.7,4.1-1.7,6-2.8c0,0,1.2-1.8-1.1-0.9c-3,1.1-6.3,1.5-9.5,1.2c0,0-5.9-0.8-6.7-1.2c-0.8-0.5-1.5-2.3,0.3-2.3   c4.3-0.2,8.6-0.8,12.8-1.9c2.1-0.9,6.3-3.3,8.7-4.5c0,0,2.6-3.7,4-4.4c2.4-2.7,4.3-4.3,6.3-7c2-4.2,4.1-10.7,10.8-21   c3.4-5.4,7.3-10.5,11.7-15.1c1-5.2,3.7-9.9,7.6-13.4c1.6-3.7,3.5-7.3,5.5-10.7c0.8-1.4,1.6-2.6,2.4-3.8c1.9-3,4-8.8,11.6-9.7   c0,0,3.3-2.4,4.5-4.1c1.9-1.7,1.5-4.3,3-6.1c-2.4-2.4-8.6-6.8-9.3-13c-0.7-5.9,1.4-11.8,5.6-15.9c4.4-4.4,9-6.5,14.7-6.2   c7,1,8.4,3.4,10.6,5.6c2.1,2.1,2.9,0.8,3.8,3.4c5.9,1.6,5.5,0.9,5.5,5.2c0.9,1.2,2.4,2.4,2.4,4.9c2-4.1,2.4-4.9,7.7-9.4   c1.2-3.7,2.1-7.3,3.2-10.9c1-3.4,2.3-6.9,3.3-9.5c-1-7.4,1.1-8.7,4-15.1c-0.6-0.9-0.5-1.1-0.2-2.6c1.1-4.3,2.8-10,4-13.8   c0.2-0.9,1-1.5,1.9-1.6c1.4-4.7,3.3-13.4,3.6-15.2c1.4-5,0.5-6.5-0.6-9.3c-0.3-0.9-0.2-2.1-0.8-3.2c-1.7-3-3.2-6.1-4.6-9.3   c-0.8-1.7-2-8.1-2-8.1C1083.3,179.4,1084.2,182.7,1084.1,182.7"/>
</g>
</svg>