<?xml version="1.0" encoding="UTF-8" standalone="no"?>
<!-- Created with Inkscape (http://www.inkscape.org/) -->

<svg
   xmlns:dc="http://purl.org/dc/elements/1.1/"
   xmlns:cc="http://creativecommons.org/ns#"
   xmlns:rdf="http://www.w3.org/1999/02/22-rdf-syntax-ns#"
   xmlns:svg="http://www.w3.org/2000/svg"
   xmlns="http://www.w3.org/2000/svg"
   xmlns:sodipodi="http://sodipodi.sourceforge.net/DTD/sodipodi-0.dtd"
   xmlns:inkscape="http://www.inkscape.org/namespaces/inkscape"
   id="svg3406"
   version="1.1"
   inkscape:version="0.91 r13725"
   width="301.83478"
   height="548.65906"
   viewBox="0 0 301.83478 548.65906"
   sodipodi:docname="silhouette-football-11.svg">
  <title
     id="title3340">Silhouette Football 11</title>
  <metadata
     id="metadata3412">
    <rdf:RDF>
      <cc:Work
         rdf:about="">
        <dc:format>image/svg+xml</dc:format>
        <dc:type
           rdf:resource="http://purl.org/dc/dcmitype/StillImage" />
        <dc:title>Silhouette Football 11</dc:title>
        <cc:license
           rdf:resource="http://creativecommons.org/publicdomain/zero/1.0/" />
        <dc:date>2017-03-18</dc:date>
        <dc:creator>
          <cc:Agent>
            <dc:title>JLouis</dc:title>
          </cc:Agent>
        </dc:creator>
        <dc:rights>
          <cc:Agent>
            <dc:title>Domaine pubic</dc:title>
          </cc:Agent>
        </dc:rights>
        <dc:publisher>
          <cc:Agent>
            <dc:title>inkscape</dc:title>
          </cc:Agent>
        </dc:publisher>
        <dc:subject>
          <rdf:Bag>
            <rdf:li>silhouette</rdf:li>
            <rdf:li>soccer</rdf:li>
            <rdf:li>player</rdf:li>
            <rdf:li>sport</rdf:li>
            <rdf:li>football</rdf:li>
            <rdf:li>joueurs</rdf:li>
          </rdf:Bag>
        </dc:subject>
        <dc:description>Soccer player in silhouette - Joueur de football en silhouette</dc:description>
      </cc:Work>
      <cc:License
         rdf:about="http://creativecommons.org/publicdomain/zero/1.0/">
        <cc:permits
           rdf:resource="http://creativecommons.org/ns#Reproduction" />
        <cc:permits
           rdf:resource="http://creativecommons.org/ns#Distribution" />
        <cc:permits
           rdf:resource="http://creativecommons.org/ns#DerivativeWorks" />
      </cc:License>
    </rdf:RDF>
  </metadata>
  <defs
     id="defs3410" />
  <sodipodi:namedview
     pagecolor="#ffffff"
     bordercolor="#666666"
     borderopacity="1"
     objecttolerance="10"
     gridtolerance="10"
     guidetolerance="10"
     inkscape:pageopacity="0"
     inkscape:pageshadow="2"
     inkscape:window-width="1235"
     inkscape:window-height="756"
     id="namedview3408"
     showgrid="false"
     fit-margin-top="0"
     fit-margin-left="0"
     fit-margin-right="0"
     fit-margin-bottom="0"
     inkscape:zoom="0.8828125"
     inkscape:cx="-75.670641"
     inkscape:cy="251.27733"
     inkscape:window-x="0"
     inkscape:window-y="0"
     inkscape:window-maximized="1"
     inkscape:current-layer="svg3406" />
  <g
     id="g3416"
     transform="translate(-78.671745,-47.538654)">
    <path
       style="fill:#cfe9fc"
       d="M 104.77465,594.34941 C 96.285275,591.62972 86.215348,581.9474 81.91871,572.37321 78.849745,565.53465 78.515305,563.5456 79.02008,555.13386 79.934305,539.8989 87.55215,528.22883 101.25,521.079 c 4.69013,-2.4481 7.49474,-2.93565 16.875,-2.93352 9.75079,0.002 12.08959,0.4442 17.55019,3.31666 7.72113,4.0616 16.16624,13.00336 19.66194,20.81827 1.94754,4.35392 2.61435,8.39512 2.61435,15.84459 0,16.6424 -5.91483,26.3767 -20.15874,33.17611 -10.18131,4.8601 -23.519,6.09148 -33.01809,3.0483 z m 215.73527,-4.05605 c -1.9213,-1.29256 -6.95105,-21.82243 -7.72801,-31.54336 -0.53274,-6.66535 -1.47537,-9.36009 -5.24704,-15 -18.93812,-28.31889 -24.59986,-41.04226 -29.40397,-66.07824 -1.98396,-10.33915 -2.7692,-12.22674 -6.73695,-16.19447 -5.15324,-5.15325 -11.21504,-14.78303 -14.36444,-22.81939 -1.19257,-3.0431 -4.05111,-8.62665 -6.35231,-12.4079 -2.3012,-3.78125 -5.1077,-10.05884 -6.23665,-13.95019 -2.13916,-7.37339 -8.66385,-16.04636 -16.0034,-21.27259 -3.62696,-2.58261 -3.82481,-2.60587 -2.87442,-0.33787 2.18313,5.20984 -0.23079,13.44324 -6.76109,23.06065 -1.16705,1.71875 -2.84782,6.47727 -3.73505,10.5745 -1.14414,5.28364 -2.66032,8.4277 -5.21486,10.81401 -3.45405,3.22657 -3.60173,3.82675 -3.60173,14.63868 l 0,11.27417 3.88035,0.85226 c 6.90657,1.51694 14.84626,5.64865 16.91142,8.80048 2.65363,4.04994 6.80064,4.95871 11.51153,2.52263 2.1024,-1.0872 6.17469,-1.97673 9.04952,-1.97673 4.37382,0 5.91385,0.72829 9.43507,4.46188 5.89861,6.25433 6.2345,8.99399 2.55891,20.87161 -2.78849,9.01099 -3.10791,11.84682 -2.56722,22.79151 0.33964,6.875 1.1438,14.46875 1.78701,16.875 2.00651,7.50635 1.35707,14.16065 -2.04915,20.99604 -3.68033,7.38546 -8.6523,11.51271 -13.8354,11.48482 -4.30424,-0.0231 -5.38813,-0.72481 -8.90572,-5.76505 -4.69505,-6.72739 -6.52632,-16.9074 -6.52632,-36.27966 0,-11.78359 -0.47271,-18.08076 -1.4003,-18.65404 -0.77016,-0.47598 -11.31704,-0.93106 -23.4375,-1.01127 -21.73279,-0.14383 -22.11896,-0.1939 -27.95618,-3.62518 -5.09821,-2.99687 -6.53948,-4.81687 -10.39376,-13.125 -5.49727,-11.84971 -8.06226,-21.29277 -8.06226,-29.68141 0,-3.51203 -0.78749,-9.15946 -1.74996,-12.54987 -1.68918,-5.95022 -3.5376,-37.11644 -3.81293,-64.28938 -0.0731,-7.21875 -0.53201,-13.76325 -1.01971,-14.54332 -0.4877,-0.78008 -1.43696,-5.28008 -2.10945,-10 -1.26036,-8.84584 -1.03351,-10.27033 4.59497,-28.85321 1.57565,-5.20212 1.81208,-9.75421 1.16864,-22.5 -0.44365,-8.78816 -0.24007,-21.04097 0.45239,-27.22847 1.40109,-12.51931 1.9855,-25.12954 3.14272,-67.81248 0.70229,-25.90299 0.57138,-29.14557 -1.2042,-29.82692 -2.97576,-1.14191 -15.07397,5.24377 -16.70126,8.81528 -0.76855,1.68678 -2.86799,4.03048 -4.66542,5.20821 -2.89187,1.89482 -4.21062,1.96762 -11.45664,0.6325 -4.50373,-0.82985 -8.47082,-1.22659 -8.81576,-0.88165 -0.34494,0.34494 -1.6587,6.69944 -2.91947,14.12111 -1.26078,7.42167 -3.17974,18.2752 -4.26436,24.11895 -2.60429,14.03146 -2.05501,19.56134 2.54151,25.58626 3.40896,4.46834 3.69393,5.64536 3.69393,15.25724 l 0,10.41537 4.0625,1.34251 c 2.73909,0.90517 4.0625,2.13811 4.0625,3.7848 0,1.34325 0.84375,2.76606 1.875,3.16178 1.03125,0.39574 1.875,1.50308 1.875,2.46078 0,1.26607 -1.78152,1.74126 -6.52813,1.74126 -6.26489,0 -6.41611,0.0785 -3.75,1.94587 1.52797,1.07024 2.77813,2.82963 2.77813,3.90977 0,1.60971 -0.95602,1.81101 -5.30112,1.1162 -7.03983,-1.12572 -16.649169,-7.44494 -20.755435,-13.64904 -3.512356,-5.30677 -4.153404,-11.23383 -7.119131,-65.8228 -1.789154,-32.93224 3.0847,-44.32895 28.866676,-67.5 8.03217,-7.21875 15.52195,-13.98676 16.64397,-15.04003 4.48826,-4.21321 13.84316,-11.14521 24.19873,-17.93131 11.29129,-7.39928 12.43426,-7.76965 34.71631,-11.24951 7.12461,-1.11267 10.51045,-2.16686 10.27729,-3.19987 -0.19124,-0.8473 -0.59988,-5.00863 -0.90808,-9.24741 -0.3082,-4.238779 -1.17649,-13.70358 -1.92954,-21.032892 -1.54982,-15.084354 -0.90362,-17.483748 6.51618,-24.194992 7.83986,-7.091196 11.96548,-8.604733 24.90337,-9.136166 12.57025,-0.516331 16.90509,0.619815 21.33453,5.591706 3.21861,3.612793 6.05625,15.053463 6.05625,24.41735 0,6.742776 0.39166,8.523124 1.875,8.523124 3.02526,0 2.66712,18.89567 -0.41093,21.68126 C 255.20681,109.06907 253.5795,110 252.84781,110 251.2179,110 250,112.95657 250,116.91336 c 0,2.51649 1.07464,3.28425 7.1875,5.135 3.95312,1.19687 8.03125,2.82588 9.0625,3.62003 1.03125,0.79416 5.75853,3.22965 10.50506,5.4122 4.74654,2.18256 9.24654,4.79417 10,5.80358 0.75347,1.00943 4.43604,2.87083 8.1835,4.13647 9.04171,3.05367 11.61458,6.62745 12.0457,16.73173 0.39529,9.26474 1.87804,14.63895 5.40577,19.59319 2.86613,4.02511 11.35997,23.53853 11.35997,26.09796 0,0.90444 0.77679,2.89027 1.72619,4.41295 0.94938,1.52269 2.04862,5.72788 2.44273,9.34485 0.39412,3.61698 2.39085,10.08573 4.43719,14.375 6.4421,13.50305 7.64141,18.21533 11.42414,44.887 0.70821,4.99353 2.10999,10.33417 3.11505,11.86808 1.00506,1.53392 3.22925,6.51339 4.94265,11.06547 4.13864,10.99534 7.17995,15.00594 15.3354,20.22292 7.01627,4.48826 10.66504,10.20837 12.9459,20.29512 0.88149,3.89826 0.52449,4.73546 -3.91046,9.17041 -4.33394,4.33394 -5.33985,4.78227 -8.98215,4.00325 -5.65964,-1.21048 -6.90549,-2.4884 -7.84452,-8.04641 -0.62808,-3.71761 -1.61421,-5.14565 -4.33011,-6.27062 -5.20332,-2.15528 -10.95594,-8.30405 -12.66585,-13.53809 -0.82805,-2.53465 -2.82869,-5.84721 -4.44585,-7.36126 -1.61717,-1.51405 -2.9432,-3.76405 -2.94671,-5 -0.004,-1.23595 -1.39223,-4.49719 -3.08599,-7.24719 -1.69377,-2.75 -3.09715,-6.24628 -3.1186,-7.76951 -0.0215,-1.52323 -3.11111,-8.27323 -6.86589,-15 -3.75478,-6.72677 -9.32592,-18.48 -12.38031,-26.11828 -3.05437,-7.63829 -6.1246,-14.95079 -6.82271,-16.25 -0.69811,-1.29922 -2.46336,-5.73721 -3.92279,-9.86221 -1.45942,-4.125 -4.6079,-10.03125 -6.99661,-13.125 -2.3887,-3.09375 -5.53156,-7.48268 -6.98413,-9.75318 -1.81543,-2.83771 -3.43918,-4.00996 -5.19432,-3.75 -2.13918,0.31684 -3.02298,2.40559 -5.44906,12.87818 -2.45575,10.60057 -2.91648,16.15835 -3.03202,36.57541 -0.1313,23.20085 -0.0387,24.1544 2.54798,26.25 3.7373,3.02773 5.06399,10.19603 3.68684,19.92053 -0.63617,4.49207 -1.42482,8.6013 -1.75257,9.1316 -0.32773,0.53031 0.24167,1.6593 1.26534,2.50888 1.02368,0.84958 1.86124,2.41094 1.86124,3.4697 0,1.05875 1.62279,4.5055 3.60621,7.65944 1.98341,3.15394 3.97935,7.98444 4.43543,10.73444 0.45606,2.75 2.44,8.09375 4.40872,11.875 5.22068,10.02715 5.69901,15.92162 2.48518,30.625 -2.82399,12.91986 -2.82749,15.86807 -0.0501,42.10887 1.08288,10.23077 4.344,16.60004 15.24054,29.76613 5.73354,6.92772 11.17894,17.82665 14.67655,29.375 3.51292,11.59894 8.58054,37.67981 9.59375,49.375 1.75227,20.22602 4.72964,29.29841 15.25246,46.47626 3.74539,6.1141 4.23391,7.78899 3.51428,12.04853 -0.71899,4.25563 -1.36987,5.05407 -4.65569,5.71123 -5.32225,1.06445 -25.09049,0.92205 -26.74744,-0.19266 z"
       id="path3430"
       inkscape:connector-curvature="0" />
    <path
       style="fill:#acdbfb"
       d="M 103.23726,593.2184 C 83.473987,584.91988 73.853085,562.94869 81.31896,543.16374 86.947628,528.24749 102.36129,517.5 118.125,517.5 c 25.30004,0 45.12991,25.47984 38.86417,49.93741 -3.13232,12.22664 -8.07026,18.2603 -19.32883,23.61789 -12.73955,6.06234 -23.52312,6.73996 -34.42308,2.1631 z m 217.18866,-3.40154 C 318.39205,587.2583 312.5,562.28939 312.5,556.22892 c 0,-4.18683 -1.16669,-7.09276 -5.47036,-13.62533 -18.79494,-28.52893 -23.1667,-38.24284 -28.41103,-63.12838 -2.56786,-12.18508 -3.35226,-14.11969 -7.31006,-18.02878 -4.84739,-4.78774 -6.81135,-7.95534 -12.52211,-20.19643 -2.08478,-4.46875 -4.92593,-10.09375 -6.31367,-12.5 -3.66621,-6.35699 -6.97622,-13.54739 -9.33462,-20.27776 -1.93843,-5.53188 -10.6925,-15.80033 -15.82886,-18.56712 -1.79198,-0.96527 -1.9848,-0.49436 -1.45515,3.55358 0.60706,4.63961 -1.26553,10.13755 -6.9112,20.2913 -1.33792,2.40625 -3.42158,7.88271 -4.63035,12.16992 -1.47123,5.2181 -3.16715,8.4301 -5.13018,9.71632 C 206.448,437.4279 206.25,438.35588 206.25,449.38 l 0,11.82238 3.4375,0.73946 c 6.56346,1.4119 13.45987,4.94684 17.54166,8.99141 4.55882,4.51724 7.02633,4.95792 12.31545,2.19945 7.53335,-3.92891 14.82043,-1.72906 19.95028,6.02267 l 3.34032,5.04757 -3.29261,11.39955 c -3.51998,12.18679 -4.14829,23.62304 -1.92414,35.02251 2.91538,14.94219 2.83711,18.55906 -0.54602,25.23539 -6.00132,11.84301 -14.86394,16.10715 -20.65821,9.93941 -6.17996,-6.57824 -8.09454,-14.84815 -8.64987,-37.3623 -0.28404,-11.51563 -0.8816,-20.99331 -1.3279,-21.06153 -0.4463,-0.0682 -10.95351,-0.2236 -23.34935,-0.34528 -21.9966,-0.21595 -22.67512,-0.30169 -28.252,-3.56997 -5.19376,-3.04375 -6.23852,-4.52353 -11.47281,-16.25007 -5.02295,-11.25309 -5.9183,-14.58593 -7.00799,-26.08655 -0.68712,-7.25184 -1.83544,-14.72679 -2.55181,-16.61101 -0.71638,-1.88422 -1.29307,-9.15484 -1.28156,-16.15697 0.0113,-7.00211 -0.66467,-20.50013 -1.50262,-29.99561 -1.13929,-12.91039 -1.16576,-17.83737 -0.10487,-19.5361 1.09934,-1.76032 0.8906,-3.96825 -0.92741,-9.80953 -3.76775,-12.10579 -3.38553,-21.40538 1.47511,-35.88988 2.84395,-8.47484 3.14104,-12.12791 2.04378,-25.12989 -0.76841,-9.10501 -0.69733,-17.5567 0.21441,-25.49511 1.75676,-15.29609 2.66523,-37.51785 2.93765,-71.85709 0.20164,-25.41701 0.0515,-27.51424 -1.99881,-27.90981 -3.98897,-0.76963 -13.4043,4.81046 -16.56507,9.81744 -3.76968,5.97157 -6.14095,6.70932 -15.5898,4.85038 -4.16882,-0.82017 -7.91405,-1.15683 -8.32273,-0.74816 -0.40868,0.40869 -2.09595,8.21963 -3.74947,17.35765 -6.86558,37.94175 -6.90831,39.39009 -1.3686,46.38305 3.83828,4.84519 4.0625,5.6956 4.0625,15.40796 l 0,10.27973 4.0625,1.9392 c 2.23438,1.06656 4.0625,2.72317 4.0625,3.68137 0,0.95819 0.84375,2.44242 1.875,3.29828 3.29733,2.73654 2.03978,3.75 -4.65313,3.75 -6.26489,0 -6.4161,0.0785 -3.75,1.94587 3.61128,2.52945 3.5925,5.55767 -0.0344,5.54192 -7.84946,-0.0341 -22.81189,-10.79514 -25.705272,-18.48737 -0.698323,-1.85648 -1.928982,-14.62542 -2.734818,-28.37542 -0.805835,-13.75 -1.772605,-30.17529 -2.148379,-36.50065 -0.494272,-8.32004 -0.06549,-14.68098 1.550419,-23.00033 3.550655,-18.2802 10.118161,-26.53712 44.72895,-56.23496 6.73939,-5.78274 13.77065,-11.35781 15.62504,-12.38906 1.85438,-1.03125 5.3713,-3.405 7.81539,-5.275 7.22617,-5.52883 14.69304,-8.12042 29.93115,-10.38845 7.90625,-1.17676 14.73109,-2.49326 15.16631,-2.92556 0.43523,-0.43229 0.3024,-4.72349 -0.29516,-9.53599 -2.40416,-19.361929 -3.2849,-35.072962 -2.13721,-38.125 1.77395,-4.717524 7.17446,-9.861936 14.14106,-13.470484 5.01847,-2.599465 8.51427,-3.344174 17.74125,-3.779424 10.29071,-0.485427 11.9683,-0.247227 16.05739,2.279965 6.42766,3.972518 9.53499,11.612088 10.28337,25.282443 0.44714,8.167535 1.03492,10.9375 2.32089,10.9375 1.3199,0 1.7221,2.345397 1.7221,10.042156 l 0,10.042154 -4.44079,2.62013 c -3.94514,2.32769 -4.39855,3.12103 -4.0625,7.10814 0.35391,4.19887 0.78094,4.61201 6.62829,6.41277 8.17912,2.51886 25.57115,10.86109 28.75,13.79019 1.375,1.26696 5.75227,3.51638 9.72729,4.99871 9.20291,3.43187 11.24061,6.47884 11.54882,17.26887 0.2311,8.09046 2.69777,16.23522 6.10888,20.17113 1.50502,1.73658 7.83332,16.36412 11.91708,27.54575 0.87882,2.40625 2.03664,7.1875 2.57294,10.625 0.5363,3.4375 2.49677,9.625 4.35658,13.75 6.83757,15.16548 7.63789,18.18661 11.22269,42.36506 1.37457,9.27119 2.80062,14.60923 4.46967,16.73108 1.34808,1.7138 2.47286,4.02452 2.49953,5.13493 0.0266,1.11042 1.85478,5.83419 4.0625,10.49729 3.5216,7.43828 5.0031,9.12505 12.0766,13.75 7.21286,4.71606 8.36554,6.05729 10.9375,12.72633 4.03133,10.45327 3.76905,13.37628 -1.62536,18.11262 -3.76144,3.3026 -5.14666,3.8132 -8.4375,3.11015 -5.48691,-1.17221 -6.74682,-2.4863 -7.68009,-8.0103 -0.64068,-3.79212 -1.60069,-5.14005 -4.52292,-6.35047 -4.71203,-1.95179 -11.98336,-10.38485 -13.01868,-15.09867 -0.43655,-1.9876 -1.87302,-4.19142 -3.19213,-4.8974 -1.31912,-0.70597 -2.3984,-2.05042 -2.3984,-2.98767 0,-0.93725 -1.6875,-4.91208 -3.75,-8.83295 -2.0625,-3.92087 -3.75,-8.28109 -3.75,-9.68935 0,-1.40828 -2.23082,-6.4298 -4.95737,-11.15895 -2.72657,-4.72915 -6.1655,-11.25417 -7.6421,-14.50007 -4.5066,-9.90654 -12.52409,-29.2884 -14.89171,-35.99995 -3.30308,-9.36334 -7.09704,-16.30764 -11.75756,-21.5205 -2.27726,-2.54715 -4.82221,-5.93094 -5.65543,-7.51953 -0.99392,-1.89494 -2.41777,-2.75479 -4.1398,-2.5 -2.20215,0.32581 -3.0963,2.30051 -5.55285,12.26335 -2.53743,10.2909 -2.94534,15.16785 -3.05783,36.55946 -0.1283,24.39787 -0.0961,24.71178 2.77556,27.03709 2.42053,1.96004 2.98697,3.7966 3.3943,11.0056 0.26893,4.75914 -0.11637,10.84528 -0.85622,13.52475 -1.08509,3.92986 -0.98881,5.26554 0.49792,6.90836 1.0137,1.12013 1.84309,2.89203 1.84309,3.93757 0,1.04553 1.67726,4.37623 3.72725,7.40157 2.04999,3.02533 3.73749,7.15154 3.75,9.16936 0.0125,2.01782 1.93683,7.36745 4.27626,11.88809 5.89866,11.39838 6.53086,17.16023 3.35163,30.54651 -2.9801,12.54782 -3.13718,17.1657 -1.23607,36.33905 1.649,16.63075 4.06133,22.39813 14.97904,35.81184 6.32809,7.77481 10.87848,16.13741 14.43146,26.52179 3.58262,10.471 9.91014,41.35103 11.05963,53.97396 1.86345,20.46331 5.79632,32.36356 15.22631,46.07236 3.61013,5.24819 4.28623,7.19139 3.71879,10.68813 -0.38144,2.35056 -1.29633,4.87653 -2.03308,5.61329 -2.13747,2.13747 -27.93386,2.63297 -29.5753,0.56808 z"
       id="path3428"
       inkscape:connector-curvature="0" />
    <path
       style="fill:#72c3fc"
       d="M 105.2562,593.95866 C 93.48421,589.75659 83.015246,578.6654 79.877581,567.07167 c -4.681096,-17.29675 4.662488,-37.36457 21.171739,-45.47195 5.94696,-2.92043 8.67089,-3.47472 17.07568,-3.47472 8.40479,0 11.12871,0.55429 17.07567,3.47473 14.00565,6.87789 22.71599,20.95247 22.71599,36.70556 0,7.65685 -0.61627,10.2973 -4.01441,17.19991 -2.20794,4.48494 -5.64843,9.31795 -7.64555,10.74002 -12.64496,9.00402 -28.84626,12.05197 -41.0005,7.71344 z m 215.76225,-4.27116 c -2.31576,-1.84671 -7.05514,-20.01577 -8.32768,-31.92539 -0.70537,-6.60157 -1.799,-9.70733 -5.11575,-14.52806 -9.74201,-14.15953 -21.54427,-35.5757 -23.824,-43.23061 -1.34617,-4.5202 -3.57627,-13.70405 -4.95578,-20.40855 -2.81623,-13.68709 -3.73514,-15.88292 -8.07549,-19.29704 -3.65805,-2.87741 -6.98184,-8.15849 -11.9883,-19.04785 -2.05454,-4.46875 -4.87094,-10.09375 -6.25868,-12.5 -3.66621,-6.35699 -6.97622,-13.54739 -9.33462,-20.27776 -1.93843,-5.53188 -10.6925,-15.80033 -15.82886,-18.56712 -1.7978,-0.96841 -1.9824,-0.49156 -1.4233,3.67675 0.62765,4.67949 -0.85864,8.79928 -7.50145,20.79313 -1.14233,2.0625 -2.95613,7.00764 -4.03069,10.9892 -1.17711,4.36156 -3.1761,8.30201 -5.0288,9.91291 -2.8538,2.48135 -3.07505,3.50846 -3.07505,14.27513 l 0,11.6014 5.3125,1.42921 c 7.45635,2.00596 12.26871,4.62735 16.17954,8.81326 3.69619,3.95619 7.4384,4.484 12.25796,1.72889 6.92077,-3.95628 14.42579,-1.62955 19.50609,6.0473 l 3.35152,5.0645 -2.94754,9.4441 c -3.78487,12.12697 -4.48875,27.09686 -1.87953,39.97385 2.57506,12.70848 2.4926,14.54436 -0.98913,22.02134 -5.48069,11.76969 -14.78901,16.33816 -20.62719,10.12371 -6.13933,-6.53501 -8.08678,-14.87462 -8.65181,-37.0498 -0.28904,-11.34375 -0.99847,-20.92069 -1.57652,-21.28209 -0.57805,-0.3614 -9.65948,-0.5581 -20.18095,-0.4371 -30.10439,0.34622 -34.34939,-1.55707 -42.13222,-18.89037 -5.72311,-12.74608 -7.54803,-19.68776 -7.59216,-28.87928 -0.0169,-3.50011 -0.86822,-9.12511 -1.89204,-12.5 -1.13788,-3.75097 -1.86431,-11.23798 -1.8688,-19.26116 -0.004,-7.21875 -0.67397,-20.27261 -1.48875,-29.00857 -1.09008,-11.68785 -1.11516,-16.68738 -0.095,-18.92652 1.09354,-2.40003 0.87702,-4.67981 -1.02477,-10.7903 -3.70849,-11.91538 -3.3524,-18.02865 2.18575,-37.52461 1.07412,-3.78125 2.12619,-7.51851 2.33791,-8.30504 0.21174,-0.78652 -0.16784,-7.39646 -0.84349,-14.68875 -0.85593,-9.23825 -0.80385,-16.95396 0.17177,-25.44496 1.74797,-15.21286 2.61311,-36.78871 2.89378,-72.16834 0.20164,-25.41701 0.0515,-27.51423 -1.99881,-27.90981 -3.88532,-0.74963 -13.5459,4.85744 -16.24197,9.42696 -3.3749,5.72003 -6.64667,6.77671 -15.9231,5.1427 -4.19113,-0.73826 -7.95575,-1.00676 -8.36583,-0.59668 -0.41007,0.41007 -1.76991,6.52208 -3.02185,13.58226 -1.25189,7.06016 -3.11814,17.33666 -4.14717,22.83666 -2.99559,16.01089 -2.62581,20.85475 2.10431,27.56542 3.74911,5.31891 4.0625,6.5207 4.0625,15.57906 l 0,9.81553 4.18211,1.99432 c 2.44866,1.16767 3.92517,2.66387 3.56222,3.6097 -0.34093,0.88846 0.47082,2.29655 1.8039,3.12906 3.63673,2.27119 1.62604,3.93191 -4.76048,3.93191 l -5.68971,0 2.95098,2.41127 c 2.19183,1.79097 2.58993,2.77907 1.54748,3.84099 -3.5807,3.64763 -19.277179,-4.58839 -25.146993,-13.19472 -3.631151,-5.32402 -3.167108,-1.1739 -7.278625,-65.0956 -0.698902,-10.86583 -0.416701,-16.56895 1.288475,-26.03932 3.408243,-18.92898 9.654597,-26.88208 44.794063,-57.03356 6.73939,-5.78273 13.77065,-11.35781 15.62504,-12.38906 1.85438,-1.03125 5.3713,-3.405 7.81539,-5.275 7.09765,-5.43049 14.55932,-8.01349 29.93115,-10.36123 7.90625,-1.20753 14.71891,-2.54274 15.13924,-2.96713 0.42033,-0.4244 0.026,-7.24039 -0.87638,-15.14664 -0.90235,-7.90625 -1.66812,-18.680157 -1.70174,-23.942016 -0.0579,-9.052556 0.15734,-9.815299 4.00138,-14.184105 2.23437,-2.539399 6.875,-6.103189 10.3125,-7.919533 5.54361,-2.929197 7.66276,-3.303963 18.75,-3.315895 10.50782,-0.01125 13.06067,0.384985 16.01797,2.486549 5.32594,3.784814 8.50789,12.13937 9.28355,24.375 0.44623,7.038969 1.24732,10.962378 2.37352,11.624613 1.15068,0.676626 1.69996,3.571792 1.69996,8.960266 0,9.875371 -0.61956,11.524911 -5.22283,13.905351 -3.19066,1.64995 -3.61973,2.49598 -3.28601,6.47906 0.36123,4.31135 0.75213,4.69423 6.63384,6.49781 7.9089,2.42519 25.18765,10.89538 29.6487,14.53405 1.86929,1.52469 6.24995,3.71919 9.7348,4.87667 8.08112,2.68412 9.98919,5.67644 10.46467,16.41113 0.36787,8.30504 1.58017,11.87674 8.21765,24.21105 1.29488,2.40625 3.86363,8.3125 5.70834,13.125 1.84471,4.8125 4.1408,10.59721 5.10243,12.85491 0.96162,2.2577 1.74841,5.84561 1.74841,7.97315 0,2.12753 2.16356,8.99907 4.80792,15.27009 2.64437,6.27101 5.21249,12.52685 5.70694,13.90185 1.01999,2.83646 3.85129,18.59212 5.76209,32.06505 0.7064,4.98071 2.01899,9.92864 2.91686,10.99539 0.89789,1.06676 2.65349,4.75206 3.90134,8.18956 4.4242,12.1875 7.73235,17.39815 13.09444,20.625 9.36833,5.63778 10.90247,7.29989 13.62195,14.75833 3.78702,10.38626 3.51463,13.0073 -1.84039,17.70907 -3.56943,3.134 -5.2245,3.80283 -7.8125,3.15711 -4.65283,-1.1609 -7.29236,-3.91371 -8.16819,-8.51872 -0.55927,-2.94066 -2.045,-4.71599 -5.68614,-6.79456 -5.62513,-3.21114 -10.70766,-9.32534 -11.97578,-14.4067 -0.47637,-1.90877 -1.9264,-4.03793 -3.22233,-4.73148 -1.29591,-0.69355 -2.35621,-2.0057 -2.35621,-2.91587 0,-0.91018 -1.68037,-4.96852 -3.73416,-9.01853 -2.0538,-4.05001 -3.7413,-8.49757 -3.75,-9.88349 -0.009,-1.38591 -2.27107,-6.3791 -5.02745,-11.09599 -2.75639,-4.71688 -6.19534,-11.17671 -7.6421,-14.35516 -4.44641,-9.7685 -12.4784,-29.19004 -14.83746,-35.87734 -3.30309,-9.36333 -7.09705,-16.30763 -11.75757,-21.5205 -2.27726,-2.54715 -4.82221,-5.93093 -5.65543,-7.51952 -0.99174,-1.89078 -2.41794,-2.75423 -4.12934,-2.5 -2.13685,0.31741 -3.14024,2.32899 -5.49355,11.01335 -2.53386,9.35064 -2.90228,13.76267 -3.07163,36.78534 -0.15881,21.5908 0.12488,26.39433 1.62395,27.5 0.99902,0.73681 2.47077,2.56831 3.27057,4.06998 1.77466,3.33207 1.90317,15.7206 0.22381,21.5762 -0.95918,3.34447 -0.82143,4.7419 0.625,6.34018 1.02045,1.12759 1.85536,2.88011 1.85536,3.8945 0,1.01439 1.6875,4.50526 3.75,7.75749 2.0625,3.25222 3.75,7.56173 3.75,9.5767 0,2.01495 1.92634,7.19853 4.28075,11.51908 5.82039,10.68089 6.46763,16.58668 3.29783,30.09144 -2.95246,12.5788 -3.10905,17.29888 -1.20951,36.4565 1.649,16.63075 4.06133,22.39813 14.97904,35.81184 6.14582,7.55086 10.25213,15.08727 14.16742,26.00179 3.71447,10.3547 10.10454,41.10626 11.32367,54.49396 1.85687,20.3912 5.61699,31.81694 15.24059,46.31111 4.00187,6.02728 4.33524,7.1662 3.3352,11.39479 -1.34908,5.70446 -3.18411,6.37209 -17.98858,6.5445 -6.85521,0.0799 -11.40247,-0.43671 -12.65796,-1.4379 z"
       id="path3426"
       inkscape:connector-curvature="0" />
    <path
       style="fill:#51b6fd"
       d="M 105.2562,593.95866 C 93.48421,589.75659 83.015246,578.6654 79.877581,567.07167 c -4.681096,-17.29675 4.662488,-37.36457 21.171739,-45.47195 5.94696,-2.92043 8.67089,-3.47472 17.07568,-3.47472 8.40479,0 11.12871,0.55429 17.07567,3.47473 14.06765,6.90834 22.43822,20.46897 22.43822,36.35074 0,16.21872 -5.74279,25.81875 -19.59465,32.75576 -11.62096,5.81977 -22.55676,6.90456 -32.78804,3.25243 z m 216.07749,-3.88049 C 318.66585,588.38996 312.5,564.00562 312.5,555.14319 c 0,-3.5974 -1.62215,-7.15398 -6.94678,-15.23078 -10.53393,-15.97869 -19.13463,-31.47248 -21.21841,-38.22404 -1.02925,-3.33485 -3.27229,-12.4499 -4.98452,-20.25566 -3.52424,-16.0663 -3.38998,-15.72891 -8.28115,-20.80771 -5.20711,-5.40685 -9.68674,-12.58534 -13.65079,-21.875 -1.90687,-4.46875 -5.4811,-11.46691 -7.9427,-15.55146 C 247.01404,419.11397 245,414.86505 245,413.75646 c 0,-4.18984 -6.57574,-14.97023 -11.62465,-19.05769 -8.0767,-6.53865 -8.21949,-6.56035 -7.49225,-1.13838 0.63094,4.70397 -0.84548,8.80222 -7.49856,20.81461 -1.14233,2.0625 -2.95613,7.00764 -4.03069,10.9892 -1.17711,4.36156 -3.1761,8.30201 -5.0288,9.91291 -2.8538,2.48135 -3.07505,3.50846 -3.07505,14.27513 l 0,11.6014 5.30547,1.42861 c 7.81362,2.104 14.03534,5.60051 16.40741,9.22074 2.3938,3.65341 7.06191,4.1661 12.03712,1.32201 7.15049,-4.08759 15.25834,-1.29441 19.82425,6.82953 l 2.92234,5.1996 -3.24829,10.41841 c -3.51935,11.28777 -4.28278,26.09957 -1.90331,36.92746 2.78366,12.66718 2.76846,15.5667 -0.11675,22.27366 -5.2753,12.26278 -15.08042,17.39535 -21.06397,11.02614 -6.09133,-6.48393 -8.05852,-14.8761 -8.82493,-37.64779 l -0.71434,-21.22298 -22.5,-0.0994 c -20.26263,-0.0895 -22.9972,-0.35857 -27.5,-2.70649 -6.51216,-3.39567 -8.46174,-5.69407 -12.50982,-14.7482 -5.88054,-13.15264 -6.97229,-17.221 -8.1318,-30.30255 -0.62412,-7.0414 -1.71945,-13.89505 -2.43408,-15.23032 -0.71461,-1.33528 -1.29464,-8.79288 -1.28894,-16.57245 0.006,-7.77958 -0.66462,-20.9968 -1.48962,-29.37163 -1.13963,-11.56877 -1.15211,-15.99043 -0.052,-18.40495 1.17417,-2.57703 0.98311,-4.63325 -1.01038,-10.8734 -1.3521,-4.23242 -2.45836,-10.0129 -2.45836,-12.84547 0,-6.01413 2.56101,-18.88595 5.43126,-27.29783 1.70734,-5.00376 1.82044,-7.92758 0.74549,-19.27261 -0.90663,-9.56862 -0.85773,-16.78195 0.17189,-25.35136 1.46591,-12.20068 1.70276,-17.71866 3.04939,-71.03989 l 0.76552,-30.3125 -3.25657,0 c -5.39118,0 -12.92684,4.68512 -16.40973,10.20236 l -3.25169,5.15101 -10.55871,-0.74513 c -7.70033,-0.54343 -10.68018,-0.33747 -11.00741,0.76081 -1.35855,4.55969 -7.35912,41.47627 -7.87428,48.44395 -0.57192,7.73556 -0.37261,8.51819 3.60723,14.16389 3.90802,5.54382 4.21933,6.70215 4.30559,16.02011 l 0.093,10.0442 4.10462,1.72586 c 2.50385,1.05279 3.85683,2.37159 3.46925,3.3816 -0.34946,0.91066 0.45533,2.33691 1.78841,3.16943 3.76193,2.34937 1.55922,3.92705 -5.5595,3.98196 l -6.48873,0.05 3.51485,1.9054 c 4.5077,2.44362 3.64994,4.9667 -1.5439,4.54132 -8.42883,-0.69033 -19.083595,-8.4988 -22.884621,-16.77126 -1.296515,-2.82171 -2.383465,-12.15464 -3.39499,-29.15056 -0.818343,-13.75 -1.808069,-29.73133 -2.199393,-35.51406 -0.508228,-7.51028 -0.05109,-14.11342 1.600125,-23.11275 3.558163,-19.39252 9.303787,-26.67054 45.983969,-58.24819 5.98942,-5.15625 12.4163,-10.21875 14.28195,-11.25 1.86563,-1.03125 5.39177,-3.405 7.83586,-5.275 7.23287,-5.53395 14.65256,-8.04828 30.87664,-10.46325 l 15.32048,-2.28047 -0.62046,-3.80314 C 197.94821,100.55688 196.25,80.711553 196.25,72.66975 c 0,-8.01102 0.31257,-9.034031 4.0625,-13.295871 6.62645,-7.531058 14.7607,-10.97508 27.44616,-11.620653 10.03905,-0.510893 11.32116,-0.297491 16.52105,2.749848 5.07905,2.976524 5.88909,4.11865 8.17884,11.531994 1.41337,4.576007 2.54145,11.71689 2.54145,16.087865 0,5.833193 0.48342,8.045102 1.875,8.5791 1.39849,0.536648 1.875,2.768396 1.875,8.781502 0,9.981525 -0.61179,11.622235 -5.22283,14.006695 -3.1894,1.6493 -3.61961,2.49664 -3.28601,6.47218 0.37035,4.41365 0.64482,4.65361 7.80967,6.82795 4.08421,1.23945 8.34724,3.08742 9.47342,4.10659 1.12619,1.01918 2.57029,1.85305 3.20913,1.85305 1.59846,0 12.99963,6.10695 16.52484,8.85141 1.58578,1.23457 5.68519,3.17532 9.1098,4.31279 7.95653,2.64274 9.76212,5.52236 10.20647,16.27776 0.31177,7.54624 1.23008,10.48322 7.01426,22.43304 10.34735,21.3771 12.4609,26.90986 13.84772,36.25 0.5104,3.4375 2.21048,9.0625 3.77797,12.5 1.56747,3.4375 3.92462,9.0625 5.2381,12.5 2.45661,6.42916 7.2615,31.01008 7.28452,37.26626 0.007,1.93395 1.61046,6.99645 3.56299,11.25 1.95254,4.25355 5.16055,11.27204 7.12893,15.59664 2.81473,6.18408 4.79237,8.64082 9.26245,11.50644 10.26164,6.5784 10.87922,7.24685 13.60689,14.72772 3.78273,10.37451 3.52266,13.04814 -1.71682,17.64845 -5.16511,4.53503 -6.15338,4.66477 -11.35807,1.49105 -2.66369,-1.62425 -4.15359,-3.70494 -4.69583,-6.55782 -0.60065,-3.1602 -1.99566,-4.86458 -5.72328,-6.99252 -5.62513,-3.21113 -10.70766,-9.32533 -11.97578,-14.4067 -0.47636,-1.90876 -1.79224,-3.96612 -2.92418,-4.57191 -1.13194,-0.6058 -3.13063,-4.25689 -4.44156,-8.11354 -1.31091,-3.85665 -3.13257,-7.63378 -4.04814,-8.39363 -0.91556,-0.75985 -1.66466,-2.86848 -1.66466,-4.68583 0,-1.81736 -2.2352,-7.12928 -4.96711,-11.80429 -5.46751,-9.3563 -12.10366,-23.62256 -16.37858,-35.21032 -1.52178,-4.125 -3.52905,-8.60954 -4.4606,-9.96564 -0.93153,-1.35608 -1.69416,-3.32484 -1.6947,-4.375 -10e-4,-3.46754 -7.19285,-17.18742 -11.57865,-22.09101 -2.37026,-2.65009 -4.99131,-6.11811 -5.82453,-7.7067 -1.00954,-1.92473 -2.4164,-2.7588 -4.21689,-2.5 -2.25745,0.32446 -3.16048,2.13611 -5.4897,11.01335 -2.40863,9.17987 -2.8169,14.18136 -3.00179,36.77239 -0.17769,21.71161 0.0971,26.37685 1.6201,27.5 1.00875,0.74393 2.48848,2.58126 3.28827,4.08293 1.77467,3.33207 1.90318,15.7206 0.22382,21.57621 -0.95918,3.34446 -0.82143,4.74189 0.625,6.34017 1.02045,1.12759 1.85536,2.88011 1.85536,3.8945 0,1.01439 1.6875,4.50526 3.75,7.75749 2.0625,3.25222 3.75,7.56174 3.75,9.5767 0,2.01495 1.92634,7.19854 4.28075,11.51908 5.92926,10.88068 6.52646,16.63357 3.15036,30.34773 -2.29889,9.33842 -2.62969,13.21577 -1.972,23.11422 2.02923,30.54064 2.52054,32.12917 14.61728,47.26148 3.13576,3.92265 7.1552,9.66337 8.93208,12.75715 7.47005,13.0063 15.48694,45.74419 18.51913,75.62495 1.55279,15.3021 6.13926,28.00149 14.49402,40.13224 4.11227,5.97082 4.41775,6.99213 3.39055,11.33557 -0.92231,3.89991 -1.80681,4.91883 -4.83305,5.56746 -5.76992,1.23672 -23.50157,1.17962 -25.49543,-0.0821 z"
       id="path3424"
       inkscape:connector-curvature="0" />
    <path
       style="fill:#2ea7fd"
       d="m 107.25401,594.50076 c -22.680698,-6.1058 -34.641915,-32.55047 -24.494149,-54.15335 5.427736,-11.55472 15.399025,-19.04446 29.211529,-21.94167 13.64226,-2.86149 30.46797,4.50915 38.93245,17.05469 4.9874,7.39203 6.58021,12.93498 6.58918,22.93018 0.007,8.25078 -3.2899,18.88635 -7.35767,23.73243 -3.28164,3.90954 -13.90284,9.91409 -21.55759,12.18731 -7.72473,2.294 -13.32399,2.344 -21.32375,0.19041 z m 213.74234,-4.81326 c -1.0898,-0.85938 -2.29219,-3.25 -2.67195,-5.3125 -0.37978,-2.0625 -1.83224,-8.53125 -3.2277,-14.375 -1.39546,-5.84375 -2.55059,-12.69309 -2.56695,-15.22074 -0.0217,-3.35316 -1.65209,-7.07085 -6.03003,-13.75 C 288.23115,513.15801 282.9998,501.2321 278.63227,477.5 c -1.71704,-9.33008 -3.48113,-13.35143 -7.40405,-16.87795 -4.08503,-3.67226 -10.99833,-14.91385 -13.83623,-22.49883 -1.36387,-3.64522 -4.15118,-9.07356 -6.19403,-12.06296 -2.04285,-2.98939 -4.6318,-8.51746 -5.7532,-12.2846 -1.12141,-3.76713 -3.35861,-8.84351 -4.97156,-11.28084 -2.72185,-4.11299 -13.11441,-13.74482 -14.83041,-13.74482 -0.41584,0 -0.39294,1.93565 0.0509,4.30144 0.6057,3.22867 -0.0182,6.10385 -2.50175,11.52858 -1.81979,3.97494 -4.03486,8.08618 -4.92237,9.13608 -0.88753,1.04989 -2.61408,5.71632 -3.83678,10.36986 -1.49662,5.69608 -3.21201,9.23884 -5.24936,10.84141 -2.88443,2.26889 -3.00944,2.9539 -2.66734,14.61545 l 0.35893,12.235 3.75,0.83074 c 6.44551,1.42788 14.18836,5.56701 16.92717,9.04886 3.04504,3.87114 5.89136,4.14377 13.38468,1.28204 8.06972,-3.08185 14.03507,-0.96497 18.43422,6.54161 l 3.33789,5.69568 -3.22948,9.73637 c -3.92157,11.82293 -4.32577,26.72804 -1.14146,42.09294 2.08274,10.04958 2.0766,10.18778 -0.76311,17.18435 -1.61109,3.96948 -4.73165,8.69425 -7.13731,10.80645 -8.51822,7.47909 -14.80037,3.79404 -20.23878,-11.87186 -1.03487,-2.98105 -2.05637,-13.32815 -2.52979,-25.625 l -0.79402,-20.625 -22.5,-0.1015 c -19.01899,-0.0859 -23.17686,-0.44759 -26.875,-2.33824 -6.8635,-3.50892 -8.62739,-5.58565 -13.28986,-15.6468 -5.16772,-11.15141 -7.89558,-21.82485 -7.99653,-31.28842 -0.0404,-3.78125 -0.88394,-9.125 -1.87466,-11.875 -1.15358,-3.20204 -1.80435,-9.9444 -1.80976,-18.75 -0.005,-7.5625 -0.68345,-20.60213 -1.50845,-28.97695 -1.12709,-11.4415 -1.14572,-16.0045 -0.0749,-18.35467 1.13935,-2.5006 0.93676,-4.83527 -1.01037,-11.64407 -3.5955,-12.57279 -3.24914,-17.54405 2.64047,-37.89931 2.3028,-7.95875 2.41393,-14.04587 0.52486,-28.75 -0.39745,-3.09375 -0.0535,-10.96875 0.76444,-17.5 0.81789,-6.53125 1.6541,-18.0625 1.85825,-25.625 0.20414,-7.5625 0.73213,-27.75194 1.1733,-44.86543 l 0.80213,-31.11542 -4.9265,0.66077 c -6.41652,0.86064 -11.04532,3.98898 -14.87232,10.05134 l -3.09383,4.90095 -10.79209,-0.4411 -10.79212,-0.44115 -2.0751,11.875 c -1.1413,6.53125 -2.99127,16.87056 -4.11104,22.97624 -2.22957,12.15701 -2.69866,25.77376 -0.88789,25.77376 0.63143,0 2.4415,2.09284 4.02237,4.65075 2.33603,3.77976 2.8892,6.49492 2.95376,14.49804 l 0.0794,9.84727 4.15828,1.74844 c 2.82282,1.1869 3.92913,2.3456 3.44474,3.60789 -0.42195,1.09958 0.30339,2.40372 1.77492,3.19126 3.92618,2.10123 1.59622,3.70191 -5.46783,3.7564 -6.46359,0.0499 -6.47541,0.0573 -3.05123,1.91491 6.28011,3.40703 3.66444,6.36569 -3.84101,4.34468 -6.0163,-1.62002 -13.894779,-7.23704 -18.35774,-13.08828 -3.058402,-4.00977 -3.493304,-5.90232 -4.400134,-19.14796 -0.55346,-8.08412 -1.700007,-24.58199 -2.547885,-36.66193 -1.38289,-19.70241 -1.317862,-23.24127 0.631645,-34.375 C 89.0358,181.86392 95.636406,173.41887 131.75401,142.6681 139.93747,135.70064 147.30342,130 148.12279,130 c 0.81936,0 2.4717,-1.08505 3.67186,-2.41121 4.58701,-5.06859 17.11407,-9.68633 32.58035,-12.00979 8.25,-1.23938 15.11607,-2.32087 15.25794,-2.40331 0.14186,-0.0824 -0.55564,-7.44007 -1.55002,-16.350292 -0.99437,-8.910219 -1.81357,-19.767231 -1.82043,-24.126693 -0.0113,-7.23867 0.3617,-8.36345 4.30081,-12.965415 6.33254,-7.398153 15.35836,-11.30641 27.65536,-11.975015 10.91209,-0.593306 14.98323,0.658989 20.15723,6.200444 C 251.83114,57.65934 255,69.580753 255,78.878888 c 0,5.161233 0.5127,7.300381 1.875,7.823145 1.40532,0.539275 1.85299,2.686302 1.78714,8.571236 -0.10675,9.539011 -0.94609,11.892571 -4.94958,13.878561 -2.4053,1.19319 -3.17055,2.65929 -3.46314,6.63479 l -0.37556,5.10316 6.00056,1.65783 c 6.99663,1.93301 27.36313,11.72929 31.00058,14.91126 1.375,1.20283 5.4864,3.23348 9.13645,4.51257 3.65004,1.27908 7.24557,3.05956 7.99007,3.95663 0.7445,0.89707 1.78782,6.39463 2.31849,12.21679 0.6065,6.65423 1.90269,12.3303 3.49,15.28295 1.38884,2.58345 4.24895,8.35344 6.35583,12.82219 2.10686,4.46875 4.32242,8.98721 4.92346,10.04102 0.60105,1.05383 1.51054,3.86633 2.0211,6.25 0.51055,2.38369 1.53476,5.08537 2.276,6.00373 0.74125,0.91836 1.73177,4.92685 2.20116,8.90776 0.46939,3.98091 2.55956,10.82328 4.64484,15.20525 2.08527,4.38198 4.43319,9.93599 5.21759,12.34224 1.69202,5.1905 6.26855,30.57982 6.28707,34.87895 0.007,1.65216 1.61621,6.43341 3.57576,10.625 1.95955,4.19157 4.60285,10.38622 5.874,13.76589 2.6315,6.99645 8.41597,13.33392 15.44212,16.9184 4.02117,2.05145 5.35177,3.80216 8.0918,10.64662 4.36508,10.9038 4.21135,13.33778 -1.13924,18.03565 -5.19065,4.55745 -6.14075,4.67236 -11.519,1.39319 -2.70706,-1.65053 -4.0625,-3.44601 -4.0625,-5.38141 0,-3.63997 -1.92307,-6.03428 -7.51844,-9.36077 -5.04362,-2.99848 -9.49977,-8.5417 -10.69506,-13.3041 -0.45324,-1.80585 -1.81966,-3.8162 -3.0365,-4.46742 -1.21684,-0.65123 -2.60211,-2.74576 -3.07838,-4.65453 -0.47627,-1.90876 -2.22848,-6.18856 -3.89378,-9.51067 -1.66532,-3.32211 -3.02784,-7.18604 -3.02784,-8.58649 0,-1.40046 -1.90526,-5.71361 -4.23391,-9.5848 -5.88405,-9.7817 -9.70363,-17.69052 -14.86939,-30.78851 -2.44031,-6.1875 -5.32441,-12.9375 -6.40911,-15 -1.0847,-2.0625 -1.98278,-4.59375 -1.99573,-5.625 -0.0377,-3.00545 -7.3064,-16.53441 -11.08116,-20.625 -1.90325,-2.0625 -4.44106,-5.33134 -5.63957,-7.26409 -1.49759,-2.41502 -3.02187,-3.3924 -4.87368,-3.125 -2.21052,0.3192 -3.20219,2.1854 -5.52056,10.38909 -2.48654,8.79873 -2.85225,13.1792 -3.04439,36.46526 l -0.21836,26.46528 3.31792,3.94313 c 2.74013,3.25644 3.31673,5.17814 3.31097,11.03474 -0.004,3.90038 -0.60698,9.25239 -1.3403,11.89338 -1.09258,3.93467 -0.97845,5.19392 0.63196,6.97342 1.08092,1.1944 1.97555,3.25235 1.98806,4.57322 0.0125,1.32086 1.70001,4.87684 3.75,7.90217 2.12763,3.13991 3.73516,7.16338 3.74568,9.375 0.01,2.13092 0.71326,5.06375 1.5625,6.5174 8.88385,15.20654 9.53518,19.02859 5.84105,34.27535 -2.85154,11.76917 -2.89588,16.72409 -0.39664,44.33165 0.87329,9.64661 3.23195,14.43486 13.11901,26.63241 10.85985,13.39769 16.65819,28.07846 22.31236,56.49259 1.9837,9.96875 3.98637,22.34375 4.45037,27.5 1.66066,18.45429 5.12792,28.50921 16.16401,46.875 4.10285,6.8278 2.98061,13.36182 -2.49661,14.53609 -6.87938,1.47486 -23.74949,1.16554 -25.82813,-0.47359 z"
       id="path3422"
       inkscape:connector-curvature="0" />
    <path
       style="fill:#1ca0fd"
       d="m 106.94782,594.40575 c -8.566576,-2.45329 -15.507477,-7.65553 -20.942205,-15.6963 -8.539756,-12.6347 -9.256599,-25.30289 -2.238474,-39.55872 14.824373,-30.11258 59.233219,-27.28385 71.326599,4.54331 2.94297,7.74529 3.14615,19.93916 0.46341,27.81255 -5.81473,17.0653 -29.69616,28.3155 -48.60933,22.89916 z m 214.04853,-4.71825 c -1.0898,-0.85938 -2.30274,-3.25 -2.6954,-5.3125 -0.39266,-2.0625 -1.84906,-8.8125 -3.23644,-15 -1.38737,-6.1875 -2.53196,-13.10899 -2.54351,-15.38109 -0.0136,-2.68905 -1.69004,-6.61608 -4.80237,-11.25 -18.47029,-27.50012 -23.7513,-39.26232 -28.93131,-64.43752 -2.65283,-12.893 -3.80968,-15.37268 -9.12096,-19.55053 -1.83049,-1.43986 -6.45313,-9.0781 -10.42965,-17.23346 -3.92811,-8.05608 -8.14573,-16.05365 -9.37251,-17.7724 -1.22676,-1.71875 -3.45535,-6.98688 -4.95241,-11.70695 -2.29946,-7.24998 -3.89226,-9.7236 -10.26239,-15.9375 -4.14726,-4.04555 -8.04046,-7.35555 -8.65158,-7.35555 -0.61111,0 -0.74797,1.93565 -0.30415,4.30144 0.6057,3.22867 -0.0182,6.10385 -2.50175,11.52858 -1.81978,3.97494 -4.03486,8.08618 -4.92237,9.13608 -0.88753,1.04989 -2.61408,5.71632 -3.83678,10.36986 -1.45431,5.53503 -3.22606,9.24989 -5.12341,10.74234 -2.61131,2.05406 -2.92505,3.40656 -3.1485,13.573 -0.26462,12.03917 0.25905,14.09161 3.60041,14.11091 3.75892,0.0217 15.44063,6.15731 18.05782,9.48453 2.75226,3.49893 5.0627,3.56162 15.36375,0.41683 6.51213,-1.98808 10.93487,-0.0321 15.88881,7.02702 l 3.55492,5.06558 -3.17232,9.93442 c -3.84533,12.04193 -4.28169,28.08495 -1.1514,42.33083 2.01084,9.15124 1.99597,9.49459 -0.7262,16.77363 -4.83284,12.92286 -14.24065,18.65459 -20.44133,12.45391 -6.35608,-6.35609 -8.74462,-15.99972 -9.53541,-38.49896 L 226.875,506.875 205,506.78695 c -19.20403,-0.0772 -22.56183,-0.39855 -27.5,-2.63103 -7.08739,-3.2041 -8.52019,-4.97247 -14.00167,-17.28092 -5.02691,-11.28768 -7.22288,-20.23285 -7.30319,-29.74903 -0.0301,-3.57553 -0.86547,-8.75097 -1.85619,-11.50097 -1.16651,-3.23795 -1.80794,-10.04009 -1.82013,-19.30175 -0.01,-7.86596 -0.67042,-20.72894 -1.46682,-28.58438 -1.08064,-10.65905 -1.089,-15.27603 -0.033,-18.19825 1.1584,-3.20548 0.96761,-5.35268 -1.052,-11.83948 -1.35684,-4.35814 -2.467,-10.19913 -2.467,-12.97998 0,-5.12497 0.33376,-6.73365 4.86981,-23.47116 2.49385,-9.20207 2.69949,-18.09236 0.69905,-30.22251 -0.41701,-2.52864 -0.0642,-10.12239 0.7838,-16.875 0.8481,-6.75263 1.67821,-18.74624 1.84468,-26.65249 0.16646,-7.90625 0.78078,-21.47978 1.36516,-30.1634 0.58437,-8.68361 0.90402,-22.32424 0.71032,-30.3125 l -0.35216,-14.5241 -3.20892,0 c -5.43693,0 -11.9083,3.95371 -15.96379,9.75314 l -3.87295,5.53838 -10.34789,-0.78077 c -7.78305,-0.58725 -10.4617,-0.39101 -10.80707,0.79174 -1.85651,6.35775 -7.34128,39.74578 -7.88505,47.99957 -0.66493,10.09273 -0.63578,10.22025 3.51803,15.3891 3.94844,4.91331 4.19316,5.78786 4.26956,15.25848 l 0.0811,10.04642 4.15828,1.74844 c 2.82282,1.1869 3.92912,2.3456 3.44474,3.60789 -0.42195,1.09958 0.30338,2.40372 1.77491,3.19126 3.93092,2.10376 1.59199,3.70342 -5.46783,3.73961 l -6.48873,0.0333 3.44388,2.13513 c 4.19916,2.60338 3.75349,4.76368 -0.91152,4.41835 -5.59937,-0.4145 -14.679762,-5.91038 -19.856585,-12.01813 l -4.827934,-5.69612 -1.062805,-16.01538 c -0.584543,-8.80845 -1.72594,-25.0563 -2.536437,-36.10631 -1.296881,-17.68117 -1.217466,-21.65427 0.66211,-33.125 1.889056,-11.52859 2.772785,-14.00274 7.651101,-21.42061 3.033446,-4.6126 9.60425,-12.2746 14.60178,-17.02667 C 119.79838,152.54189 146.3323,130 147.76481,130 c 0.62249,0 3.20818,-1.60416 5.74599,-3.5648 6.999,-5.40723 15.65239,-8.38244 31.4892,-10.82661 7.90625,-1.22022 14.49107,-2.30052 14.63294,-2.40069 0.14186,-0.10016 -0.55564,-7.47228 -1.55002,-16.382502 -2.85171,-25.553169 -2.57572,-30.542432 2.01027,-36.341017 2.11375,-2.67266 7.03562,-6.535799 10.9375,-8.584754 6.35866,-3.339067 8.28336,-3.727926 18.56098,-3.75 9.62402,-0.02067 12.03447,0.389009 15,2.549388 5.53699,4.033679 9.13059,12.882492 10.01147,24.652068 0.49467,6.609448 1.37135,10.630456 2.4579,11.273529 1.97788,1.170614 2.34039,13.999258 0.53012,18.760628 -0.64881,1.70651 -2.57434,3.40325 -4.375,3.85519 -2.83841,0.71239 -3.21616,1.446 -3.21616,6.24593 0,5.42198 0.0182,5.44385 5.9375,7.09893 7.36092,2.0582 29.30784,12.82301 31.4806,15.44102 0.88159,1.06225 4.68186,2.90193 8.44507,4.08816 8.28187,2.61064 9.81853,5.09447 10.67848,17.26053 0.59672,8.44215 1.43835,10.92907 7.82597,23.125 1.62035,3.09375 4.45218,9.5625 6.29295,14.375 1.84077,4.8125 3.90527,9.81294 4.58777,11.11207 0.68249,1.29914 1.69566,5.5794 2.25148,9.51169 0.55583,3.93229 2.44907,10.19028 4.20719,13.90665 1.75813,3.71638 4.09278,9.27986 5.1881,12.36331 2.1082,5.93474 6.82009,30.91955 6.84195,36.27948 0.007,1.74526 1.12305,5.35062 2.47986,8.01192 1.35682,2.6613 3.92733,8.66054 5.71225,13.33165 4.12105,10.78468 6.7778,14.10712 14.98385,18.73833 5.93603,3.35009 6.94986,4.56594 9.85197,11.81529 4.21853,10.53771 4.09307,12.42975 -1.16273,17.53382 -5.1103,4.96278 -6.08083,5.11286 -11.53976,1.78449 -3.14163,-1.91549 -4.0625,-3.33377 -4.0625,-6.25689 0,-3.16566 -0.96921,-4.37627 -5.96416,-7.44971 -6.51094,-4.00621 -10.96425,-9.21949 -12.24934,-14.33968 -0.45324,-1.80585 -1.81966,-3.8162 -3.0365,-4.46742 -1.21684,-0.65123 -2.60211,-2.74576 -3.07838,-4.65453 -0.47627,-1.90876 -2.22848,-6.18856 -3.89378,-9.51067 -1.66532,-3.32211 -3.02784,-7.16148 -3.02784,-8.53191 0,-1.37044 -2.17281,-6.2461 -4.82847,-10.8348 -5.1204,-8.84749 -12.65796,-25.07242 -15.84732,-34.11205 -1.05566,-2.99207 -2.66162,-6.57433 -3.56881,-7.96058 -0.90717,-1.38625 -2.55064,-5.61421 -3.65213,-9.39546 -1.97357,-6.77499 -7.03088,-15.7352 -11.64112,-20.625 -1.29639,-1.375 -3.37251,-4.08134 -4.61361,-6.01409 -1.54096,-2.39972 -3.11102,-3.3907 -4.95109,-3.125 -2.21165,0.31936 -3.19911,2.1812 -5.51006,10.38909 -2.45982,8.73667 -2.85149,13.35155 -3.10036,36.52947 -0.28305,26.36103 -0.26609,26.54947 2.67291,29.67789 3.68282,3.92018 4.76478,13.89393 2.52161,23.24455 -1.38089,5.75615 -1.32531,6.64624 0.47795,7.65539 1.12227,0.62806 2.04291,2.3796 2.04585,3.89231 0.002,1.51272 1.68804,5.28164 3.74465,8.37539 2.05661,3.09375 3.75,7.3125 3.76308,9.375 0.0131,2.0625 0.71861,4.93935 1.56785,6.393 8.78252,15.0331 9.63641,19.75899 6.01162,33.27152 -1.4259,5.31549 -2.59255,13.16457 -2.59255,17.44242 0,10.7556 2.50579,34.86101 3.93904,37.89306 2.34567,4.9623 6.77311,11.71953 11.17597,17.05694 6.24069,7.56532 11.92163,18.037 15.62745,28.80612 3.38572,9.83884 9.82119,41.52708 11.12145,54.76194 1.96126,19.96288 4.9917,28.9536 15.37849,45.625 3.26215,5.23595 3.74286,6.95926 2.96275,10.62148 -0.74909,3.51658 -1.65466,4.52657 -4.63068,5.16461 -6.87937,1.47486 -23.74948,1.16554 -25.82812,-0.47359 z"
       id="path3420"
       inkscape:connector-curvature="0" />
    <path
       style="fill:#0095fd"
       d="m 107.73281,594.36675 c -7.60918,-2.12655 -16.455275,-7.79502 -19.986539,-12.80716 -6.304219,-8.94797 -8.222299,-14.51502 -8.297451,-24.08259 -0.06426,-8.18104 0.457894,-10.4785 4.03231,-17.74203 6.832377,-13.88398 19.07155,-21.43855 34.8381,-21.50361 7.78196,-0.0321 10.04992,0.52709 17.45296,4.30336 14.00892,7.14593 21.72781,19.78949 21.72781,35.59028 0,15.84614 -6.63209,26.30083 -20.83676,32.84665 -10.44635,4.8139 -19.88871,5.922 -28.93043,3.3951 z m 213.33713,-4.62328 c -1.13028,-0.89016 -2.36808,-3.30597 -2.75067,-5.36847 -0.38258,-2.0625 -1.83144,-9.09375 -3.21967,-15.625 -1.38824,-6.53125 -2.54106,-13.40448 -2.56184,-15.27384 -0.0214,-1.92755 -2.78781,-7.60911 -6.39067,-13.125 C 289.0801,514.22199 283.71011,502.12693 279.3523,480 c -2.47565,-12.57018 -4.75295,-17.90596 -8.76386,-20.53401 -3.10655,-2.03549 -10.1551,-13.8081 -13.84483,-23.12389 -1.20528,-3.04309 -4.04269,-8.60721 -6.30535,-12.36473 -2.26265,-3.7575 -5.02012,-9.94912 -6.12773,-13.75915 -1.60785,-5.5308 -3.51174,-8.39303 -9.44403,-14.19777 -8.30144,-8.12296 -10.4442,-8.99629 -9.30087,-3.79081 0.89892,4.09278 -1.87883,12.70005 -6.22215,19.28023 -1.68262,2.54919 -3.64785,7.26109 -4.36718,10.4709 -1.57992,7.0499 -3.26576,10.52799 -6.31046,13.01923 -1.88145,1.53944 -2.33286,3.9168 -2.52236,13.28396 -0.246,12.16023 0.27491,14.20894 3.6178,14.22825 3.48836,0.0201 15.56672,6.1498 17.46863,8.86518 3.07592,4.39147 7.2857,5.17053 12.78358,2.36573 2.6878,-1.37122 5.78101,-2.49312 6.87379,-2.49312 3.84993,0 9.41038,3.87519 12.43467,8.66596 l 3.05834,4.84473 -3.04639,9.80715 c -3.71792,11.96902 -4.11629,28.69573 -1.02594,43.0769 l 2.05797,9.57685 -3.85319,8.23406 c -5.6913,12.16204 -13.56278,16.35795 -19.51709,10.40364 -6.14822,-6.14823 -8.55219,-15.99156 -9.36821,-38.35929 l -0.75244,-20.625 -22.10686,-0.10213 c -20.8049,-0.0961 -22.46128,-0.28071 -28.125,-3.13417 -5.53673,-2.78948 -6.48148,-3.9812 -11.81035,-14.89785 -6.1154,-12.52791 -8.58279,-21.5467 -8.58279,-31.37176 0,-3.28018 -0.80351,-9.51449 -1.78559,-13.85403 -0.98207,-4.33954 -2.08301,-16.60881 -2.44652,-27.26506 -0.3635,-10.65625 -1.0393,-22.65046 -1.50177,-26.6538 -0.56857,-4.92189 -0.33366,-8.22649 0.72548,-10.20551 1.29077,-2.41183 1.20529,-3.98626 -0.48593,-8.94969 -4.37075,-12.82746 -3.79493,-22.54946 2.45052,-41.37386 1.75767,-5.29785 1.70238,-24.70003 -0.0834,-29.28064 -0.44784,-1.14867 -0.10962,-7.61742 0.75148,-14.375 0.86114,-6.75757 1.68183,-18.75525 1.82376,-26.6615 0.14194,-7.90625 0.74608,-21.40625 1.34254,-30 0.59646,-8.59375 0.91077,-22.51562 0.69847,-30.9375 l -0.386,-15.3125 -3.73857,0 c -5.03657,0 -10.13057,2.80439 -14.10938,7.7676 -1.811,2.25908 -3.86894,4.81053 -4.57317,5.6699 -1.49914,1.82938 -10.09931,2.05696 -15.81249,0.41844 -2.77689,-0.7964 -4.33228,-0.70144 -5.11839,0.3125 C 112.23549,198.94562 105,241.25499 105,249.30155 c 0,5.84925 0.58447,7.90716 3.09212,10.88734 5.1554,6.12685 6.91677,16.82778 3.90257,23.70956 -0.67677,1.54517 0.30507,2.50014 4.15388,4.04012 3.57317,1.42969 4.8294,2.56585 4.31609,3.90352 -0.41802,1.08936 0.12324,2.21197 1.28065,2.65611 1.10258,0.4231 2.00469,1.626 2.00469,2.6731 0,1.5145 -1.14025,1.77531 -5.57576,1.27536 -6.52393,-0.73534 -7.88533,0.0197 -4.41629,2.4496 3.84584,2.69373 3.24849,5.58349 -0.94545,4.57373 -15.726981,-3.78654 -25.672924,-15.90487 -25.288364,-30.81181 0.07496,-2.90575 -0.161328,-8.37693 -0.525086,-12.15818 -3.057116,-31.77858 -3.437479,-47.09811 -1.468829,-59.1587 1.102788,-6.75602 2.906346,-14.06852 4.007909,-16.25 2.940181,-5.82255 11.7055,-17.2478 15.98921,-20.8413 2.04887,-1.71875 5.77755,-5.09375 8.28594,-7.5 9.44682,-9.06211 28.90493,-25.69605 32.16907,-27.5 1.86599,-1.03125 5.36145,-3.33035 7.76767,-5.1091 7.03644,-5.20153 15.87643,-8.15461 31.60762,-10.55882 l 14.73264,-2.2516 -0.69286,-5.10274 c -1.77391,-13.064516 -3.12783,-28.290511 -3.13717,-35.280067 -0.009,-6.80192 0.45298,-8.252178 4.05225,-12.718778 3.67508,-4.560674 12.16409,-9.543789 20.44635,-12.00217 1.44863,-0.429986 7.25728,-0.264527 12.90814,0.367688 7.86736,0.880196 10.96905,1.802186 13.24001,3.935652 4.00088,3.758621 6.81648,12.549869 6.9676,21.755109 0.10713,6.524904 1.85353,16.211051 2.26994,12.589826 0.0791,-0.6875 0.68901,-0.40625 1.35546,0.625 0.66645,1.03125 1.22034,5.134944 1.23086,9.119319 0.016,6.039591 -0.4911,7.754551 -3.04905,10.312501 -1.6875,1.6875 -3.65625,3.06818 -4.375,3.06818 -0.71875,0 -1.30681,2.45815 -1.30681,5.46255 0,5.45213 0.0112,5.46569 5.9375,7.11027 6.89084,1.91229 27.2769,11.82767 30.9375,15.04739 1.375,1.2094 5.64773,3.3726 9.49495,4.80712 8.16436,3.04425 9.88005,5.75311 9.88005,15.59933 0,7.18159 2.32498,15.1325 5.99263,20.49343 2.14327,3.1328 6.27356,12.64612 12.59234,29.00407 1.46577,3.79454 2.66503,8.66398 2.66503,10.82098 0,2.157 1.74515,7.77112 3.8781,12.47584 2.13296,4.70471 4.70204,10.80402 5.70907,13.55402 1.88266,5.14109 6.65285,31.4338 6.65924,36.70481 0.002,1.62514 1.1006,5.00014 2.4414,7.5 1.3408,2.49985 4.20205,8.89559 6.35834,14.21274 4.0483,9.98261 7.09734,13.4895 16.1538,18.57951 4.04104,2.27119 5.5256,4.22992 8.12244,10.71669 1.74769,4.36565 3.17274,8.91601 3.16677,10.1119 -0.0125,2.49606 -8.1548,11.55169 -10.38038,11.54468 -0.81608,-0.002 -3.31191,-1.1193 -5.54628,-2.48163 -3.13116,-1.90911 -4.0625,-3.33726 -4.0625,-6.22965 0,-3.04282 -0.98368,-4.37366 -5.20024,-7.03545 -6.83256,-4.31321 -12.01232,-10.09431 -12.97616,-14.4826 -0.42724,-1.94524 -1.79138,-4.07977 -3.03141,-4.74342 -1.24004,-0.66365 -2.6443,-2.76834 -3.12057,-4.6771 -0.47627,-1.90877 -2.22848,-6.18857 -3.89378,-9.51068 -1.66531,-3.32211 -3.02929,-7.25961 -3.03105,-8.75 -10e-4,-1.49039 -2.03909,-6.0848 -4.52737,-10.2098 -6.23876,-10.34242 -17.60961,-35.92796 -23.26196,-52.34174 -1.39053,-4.03795 -4.99556,-10.78795 -8.01115,-15 -3.0156,-4.21203 -6.45905,-9.19633 -7.65211,-11.07618 -4.97353,-7.8366 -8.08645,-5.75425 -11.36159,7.6002 -2.23542,9.11503 -2.73237,15.30523 -2.99396,37.29403 -0.31331,26.33659 -0.31049,26.36752 2.62274,28.74365 3.75122,3.03878 4.81018,11.37817 2.76493,21.774 -1.29478,6.58124 -1.23182,7.91362 0.46242,9.78572 1.07869,1.19195 1.96126,2.97668 1.96126,3.96608 0,0.98939 1.47835,3.9745 3.28522,6.63355 1.80689,2.65907 3.54648,6.86777 3.86578,9.35268 0.3193,2.4849 1.23158,5.70995 2.02727,7.16676 0.7957,1.45681 2.78039,5.0834 4.41043,8.05909 3.69655,6.74817 4.00703,16.11755 0.90854,27.41716 -1.81834,6.63109 -2.08039,10.76808 -1.42526,22.5 1.36166,24.38423 2.29866,30.36275 5.37082,34.26838 1.54396,1.96282 2.8072,4.10632 2.8072,4.76333 0,0.657 2.45685,4.09678 5.45966,7.64393 7.14032,8.43467 13.8877,21.40654 17.6342,33.90181 3.40744,11.36436 8.88413,39.71323 10.03089,51.92255 1.70096,18.10983 5.34833,28.63919 15.37145,44.375 3.57486,5.61236 3.8532,6.71179 2.72818,10.77626 -1.43187,5.17303 -2.85297,5.62797 -18.72438,5.99429 -6.08099,0.14036 -10.09706,-0.35227 -11.43006,-1.40207 z"
       id="path3418"
       inkscape:connector-curvature="0" />
  </g>
</svg>
